<?xml version="1.0" encoding="UTF-8"?>
<svg version="1.1" xmlns="http://www.w3.org/2000/svg" width="603" height="414">
<path d="M0 0 C-0.61497512 7.92634593 -2.43763465 15.33389339 -4.5 23 C-4.6750708 23.6535144 -4.8501416 24.30702881 -5.03051758 24.98034668 C-8.60901613 38.26304308 -12.9396597 51.20339688 -18 64 C-18.32967773 64.83450684 -18.65935547 65.66901367 -18.99902344 66.52880859 C-25.96039094 83.81914929 -35.35658056 99.29506408 -48 113 C-49.08861328 114.22783203 -49.08861328 114.22783203 -50.19921875 115.48046875 C-63.80140796 130.08836512 -83.74058721 139.54654991 -103.65625 140.3359375 C-105.60398871 140.36531118 -107.55204196 140.37788991 -109.5 140.375 C-110.53229736 140.37483887 -111.56459473 140.37467773 -112.62817383 140.37451172 C-123.94412624 140.20906109 -135.55653525 138.57287806 -146 134 C-144.54518105 130.22229333 -142.9027016 129.12448538 -139.3125 127.375 C-121.03915155 117.85763102 -104.39216668 104.60481194 -89 91 C-88.4627832 90.52594727 -87.92556641 90.05189453 -87.37207031 89.56347656 C-81.11833689 84.00748907 -75.13638615 78.25088442 -69.4375 72.125 C-68.94886475 71.60180176 -68.46022949 71.07860352 -67.95678711 70.53955078 C-64.91556264 67.20785141 -62.40713592 63.79477898 -60 60 C-60.99966797 60.92619141 -60.99966797 60.92619141 -62.01953125 61.87109375 C-87.73586074 85.50134336 -116.25151565 104.52612601 -147.625 119.8125 C-148.71022949 120.34665527 -149.79545898 120.88081055 -150.91357422 121.43115234 C-151.92436035 121.91406738 -152.93514648 122.39698242 -153.9765625 122.89453125 C-155.32355225 123.54192261 -155.32355225 123.54192261 -156.69775391 124.20239258 C-159 125 -159 125 -162 124 C-161.03421113 99.37238387 -153.1430665 69.34720056 -136 51 C-135.25105469 50.16082031 -134.50210937 49.32164062 -133.73046875 48.45703125 C-112.3198791 25.59370369 -78.93746869 20.49924139 -49.7543335 13.92358398 C-35.06322277 10.60374245 -20.68202503 6.76059685 -6.62109375 1.3046875 C-3 0 -3 0 0 0 Z " fill="#23B24A" transform="translate(403,142)"/>
<path d="M0 0 C0.99 0.33 1.98 0.66 3 1 C3.73266602 2.67285156 3.73266602 2.67285156 4.25390625 4.890625 C4.56871948 6.15205322 4.56871948 6.15205322 4.88989258 7.43896484 C5.11185303 8.36660645 5.33381348 9.29424805 5.5625 10.25 C8.31205581 21.10068166 11.85455623 31.58482459 15.66040039 42.09863281 C20.06252234 54.44801602 20.06252234 54.44801602 20 60 C18.41015625 62.6953125 18.41015625 62.6953125 16.0625 65.125 C-0.0590463 83.37109116 -5.10277631 106.77557604 -10 130 C-10.66 130 -11.32 130 -12 130 C-15.63609317 106.04074323 -14.80731987 81.87675598 -11 58 C-18.17714039 82.56681257 -19.5807116 106.5693477 -20 132 C-30.70915413 127.89673757 -38.5983524 116.20766865 -43.19140625 105.98046875 C-43.45824219 105.32691406 -43.72507813 104.67335938 -44 104 C-44.44666016 103.00419922 -44.44666016 103.00419922 -44.90234375 101.98828125 C-50.60896488 86.91964574 -47.38598781 69.13218434 -41.04101562 54.83984375 C-33.02033426 37.75961181 -21.38463136 21.9742717 -7.86328125 8.859375 C-5.05424887 6.05623158 -2.53958204 3.04749845 0 0 Z M-10 52 C-9 54 -9 54 -9 54 Z " fill="#71C341" transform="translate(247,126)"/>
<path d="M0 0 C5.05598951 3.62966826 8.62243654 8.16687021 9.85546875 14.33203125 C10.62782031 20.80047557 9.84186097 26.05395887 5.85546875 31.33203125 C2.53267197 34.45687418 -0.86947263 36.80349803 -5.08764648 38.55200195 C-8.77261849 40.69776754 -9.56976638 42.26616455 -11.25 46.13671875 C-11.75853516 47.27753906 -12.26707031 48.41835937 -12.79101562 49.59375 C-13.29955078 50.78613281 -13.80808594 51.97851562 -14.33203125 53.20703125 C-15.36495005 55.55957741 -16.40002854 57.91117677 -17.4375 60.26171875 C-17.88633545 61.30569824 -18.3351709 62.34967773 -18.79760742 63.42529297 C-22.31016122 71.00558397 -22.31016122 71.00558397 -26.26953125 72.5546875 C-27.54828125 72.83183594 -28.82703125 73.10898438 -30.14453125 73.39453125 C-30.83353516 73.54954102 -31.52253906 73.70455078 -32.23242188 73.86425781 C-34.53230338 74.37522882 -36.83751927 74.85434954 -39.14453125 75.33203125 C-40.90516618 75.70992202 -42.66557825 76.08885239 -44.42578125 76.46875 C-48.99384019 77.44768029 -53.56735742 78.39669573 -58.14453125 79.33203125 C-58.14453125 75.50050385 -58.03161824 74.63127241 -56.2734375 71.53125 C-55.86851074 70.80897217 -55.46358398 70.08669434 -55.04638672 69.3425293 C-54.60439941 68.57593994 -54.16241211 67.80935059 -53.70703125 67.01953125 C-53.02858154 65.82227417 -53.02858154 65.82227417 -52.33642578 64.60083008 C-49.45429098 59.54024399 -46.50880565 54.51748198 -43.51953125 49.51953125 C-42.97655396 48.60457886 -42.97655396 48.60457886 -42.42260742 47.67114258 C-40.63569308 44.6897518 -38.79216863 41.79629758 -36.76953125 38.96875 C-31.89540668 31.90296178 -30.53731993 27.85255673 -31.8203125 19.34375 C-32.45623571 13.43655974 -30.34264016 8.58171968 -26.76953125 3.95703125 C-19.37919182 -3.43330818 -9.2421896 -5.22063804 0 0 Z " fill="#23B24A" transform="translate(388.14453125,77.66796875)"/>
<path d="M0 0 C1.79244141 0.01740234 1.79244141 0.01740234 3.62109375 0.03515625 C5.41740234 0.04869141 5.41740234 0.04869141 7.25 0.0625 C8.17683594 0.07410156 9.10367187 0.08570312 10.05859375 0.09765625 C10.38859375 2.07765625 10.71859375 4.05765625 11.05859375 6.09765625 C12.19296875 6.38640625 13.32734375 6.67515625 14.49609375 6.97265625 C15.67171875 7.34390625 16.84734375 7.71515625 18.05859375 8.09765625 C19.30236768 10.58520411 19.1916561 12.32420926 19.18359375 15.09765625 C19.18746094 16.42796875 19.18746094 16.42796875 19.19140625 17.78515625 C19.05859375 20.09765625 19.05859375 20.09765625 18.05859375 22.09765625 C15.73702778 22.50494853 13.40171505 22.84204302 11.05859375 23.09765625 C10.72859375 25.40765625 10.39859375 27.71765625 10.05859375 30.09765625 C7.91282738 30.12451563 5.7669673 30.14398713 3.62109375 30.16015625 C2.42613281 30.17175781 1.23117187 30.18335938 0 30.1953125 C-2.94140625 30.09765625 -2.94140625 30.09765625 -3.94140625 29.09765625 C-3.98233562 26.76468192 -3.98382348 24.430604 -3.94140625 22.09765625 C-5.64296875 22.12859375 -5.64296875 22.12859375 -7.37890625 22.16015625 C-10.94140625 22.09765625 -10.94140625 22.09765625 -11.94140625 21.09765625 C-12.01384678 19.07801426 -12.02517813 17.05598501 -12.00390625 15.03515625 C-11.99488281 13.93042969 -11.98585938 12.82570312 -11.9765625 11.6875 C-11.96496094 10.83285156 -11.95335937 9.97820312 -11.94140625 9.09765625 C-8.8533093 7.33302942 -7.70828489 7.09765625 -3.94140625 7.09765625 C-3.96203125 6.12828125 -3.98265625 5.15890625 -4.00390625 4.16015625 C-3.92166227 0.13020127 -3.92166227 0.13020127 0 0 Z " fill="#72C143" transform="translate(282.94140625,124.90234375)"/>
<path d="M0 0 C3.47485838 2.07012839 5.74352278 4.11634312 7 8 C7.51555338 11.9525759 7.15914688 13.7044415 5.25 17.25 C2.08326621 21.12045242 0.56190022 21.82645553 -4.375 22.375 C-8.7179218 21.92573223 -10.70673134 20.8337428 -14 18 C-16.27668877 14.43648715 -16.35016699 11.10100191 -15.65625 6.9375 C-14.74150108 4.23681272 -13.19010365 2.4905556 -10.87890625 0.84765625 C-7.27812029 -0.77681475 -3.8321677 -0.77067579 0 0 Z " fill="#70C340" transform="translate(228,311)"/>
<path d="M0 0 C3.03522895 1.63435405 5.28352297 3.055553 7.375 5.8125 C8.72789093 10.54761825 8.5517493 13.91693656 6.3125 18.3125 C3.81094957 21.21970726 2.72680887 22.23769819 -1 23 C-6.15446221 23 -8.01440711 22.82132741 -12 19.5 C-14.36182905 16.17742693 -14.6619529 13.12535786 -14.42578125 9.1171875 C-13.6169653 5.09536874 -11.38128921 2.96690245 -8.125 0.6875 C-5.18445523 -0.26385272 -3.08192861 -0.36983143 0 0 Z " fill="#71C241" transform="translate(281,315)"/>
<path d="M0 0 C3.0625 2.4375 3.0625 2.4375 5 5 C5.33 5.33 5.66 5.66 6 6 C6.55720584 9.78103961 6.84003776 13.47978241 4.953125 16.89453125 C1.84085497 20.65671649 0.08318614 21.89168139 -4.75 22.375 C-8.10058068 22.35058775 -9.84894532 21.75601354 -12.4375 19.625 C-15.65732764 16.32663998 -15.94618143 15.82073313 -16.25 11.1875 C-16.20129814 7.35396815 -15.43073001 5.06091927 -13 2 C-8.77818108 -0.81454595 -4.95969791 -0.80684081 0 0 Z " fill="#72C242" transform="translate(204,299)"/>
<path d="M0 0 C2.2597272 3.30267821 2.80647192 6.45066972 2.625 10.375 C1.36666925 14.29803116 0.27756854 15.90454361 -3.0625 18.3125 C-7.2018294 19.64020943 -10.24324921 19.75225026 -14.375 18.375 C-17.98524292 15.76333491 -19.15793699 14.18536857 -20.3125 9.875 C-20.37707001 6.25907944 -20.21048272 4.46194821 -18.375 1.375 C-12.32642267 -4.35523116 -7.14230902 -4.88684301 0 0 Z " fill="#7AC54E" transform="translate(259.375,319.625)"/>
<path d="M0 0 C3.53795636 2.53809913 5.24415028 4.70800938 6.0625 8.9375 C6.28892429 12.26467911 5.89757185 13.2048563 4.3125 16.375 C1.0539698 20.07387212 -0.509887 20.8068372 -5.375 21.4375 C-10.1853299 20.85694294 -11.61392593 19.38607407 -15 16 C-16.5547669 12.89046621 -16.28644437 10.43733239 -16 7 C-14.27022143 3.60450873 -12.93208897 1.57940666 -9.6875 -0.4375 C-6.06099111 -1.19653674 -3.58424608 -0.96006591 0 0 Z " fill="#71C242" transform="translate(184,281)"/>
<path d="M0 0 C2.82424288 2.19022918 4.41508603 3.83017207 6 7 C6.04079849 11.22672392 5.69610539 14.88623137 3.4375 18.5 C0.06392863 20.57604392 -3.10064311 21.17280387 -7 21 C-11.31410598 19.69762838 -12.62954555 18.60198848 -15 14.75 C-16.19428178 10.27144334 -15.83245958 8.22262425 -14 4 C-10.78782177 -1.21978962 -5.56610555 -1.07179055 0 0 Z " fill="#71C240" transform="translate(309,309)"/>
<path d="M0 0 C0.33 0 0.66 0 1 0 C0.98428955 1.00377686 0.9685791 2.00755371 0.95239258 3.04174805 C0.89794886 6.77831955 0.86359774 10.51485621 0.83520508 14.25170898 C0.82015124 15.86667789 0.79970352 17.48160613 0.77368164 19.09643555 C0.73714714 21.42246555 0.72023985 23.74795341 0.70703125 26.07421875 C0.69154739 26.79212082 0.67606354 27.51002289 0.66011047 28.24967957 C0.65863019 32.69410841 1.35174855 35.41707157 4 39 C6.48347827 32.64045603 6.48347827 32.64045603 8 26 C8.66 26 9.32 26 10 26 C10.33 24.35 10.66 22.7 11 21 C11.66 21 12.32 21 13 21 C12.938125 19.948125 12.87625 18.89625 12.8125 17.8125 C13.007922 13.83891936 13.5673814 12.08755437 16 9 C16.66 9 17.32 9 18 9 C18 8.34 18 7.68 18 7 C19.32 6.67 20.64 6.34 22 6 C20.52742722 9.90520527 18.70463466 13.50274954 16.75 17.1875 C9.07588042 32.25463587 5.45176854 48.54734219 2 65 C1.34 65 0.68 65 0 65 C-3.23980483 43.65200029 -3.5029321 21.33035437 0 0 Z " fill="#8BC766" transform="translate(235,191)"/>
<path d="M0 0 C2.01611453 1.61289162 2.85099718 2.70199436 4 5 C4.43867925 12.89622642 4.43867925 12.89622642 2 16 C-1.37767434 18.27796642 -3.47432693 18.99077767 -7.5625 19.0625 C-12.07397557 17.66804391 -13.55228556 16.00535091 -16 12 C-16.4124558 8.58250905 -16.26738592 6.06954369 -15.4375 2.75 C-11.10113278 -2.52905575 -5.86025596 -2.47933906 0 0 Z " fill="#70C340" transform="translate(170,260)"/>
<path d="M0 0 C2.80915461 1.27688846 4.50106764 2.31099817 6.3125 4.8125 C7.25846855 7.82239992 7.44072275 9.85198036 7 13 C4.65369226 16.65747972 3.16253179 18.6124894 -1 20 C-4.29801144 20 -6.1367852 19.62506786 -9 18 C-11.66556201 15.23923935 -12.7199788 12.82695639 -13 9 C-11.36750779 2.30678192 -6.81921096 -0.99446826 0 0 Z " fill="#7DC453" transform="translate(331,296)"/>
<path d="M0 0 C3.19319107 2.24386399 3.90367244 3.64679896 4.9375 7.4375 C5.00845985 11.48221121 4.56599956 12.92080053 2 16 C-0.85074644 18.31141604 -2.3139451 19 -6 19 C-9.91240083 17.69586639 -11.57902228 16.34664567 -14 13 C-14.70901115 10.16967322 -14.72556238 7.82797934 -14 5 C-9.81882028 -0.3112283 -6.54584811 -1.73665358 0 0 Z " fill="#79B94E" transform="translate(160,234)"/>
<path d="M0 0 C5.05598951 3.62966826 8.62243654 8.16687021 9.85546875 14.33203125 C10.63906034 20.89461082 9.5771871 25.83036065 5.85546875 31.33203125 C4.88252895 32.35837824 3.88894304 33.36666558 2.85546875 34.33203125 C1.86546875 33.83703125 1.86546875 33.83703125 0.85546875 33.33203125 C1.33757812 32.95949219 1.8196875 32.58695313 2.31640625 32.203125 C4.43766172 29.62423827 4.325318 27.69760909 4.48046875 24.39453125 C4.78200251 18.60077551 4.78200251 18.60077551 5.4609375 16.1171875 C6.0972932 14.12695356 6.0972932 14.12695356 4.54296875 11.70703125 C2.92578309 9.29110672 2.92578309 9.29110672 0.85546875 7.33203125 C0.85546875 6.01203125 0.85546875 4.69203125 0.85546875 3.33203125 C-4.70522707 1.07769511 -10.22309635 0.73241297 -16.14453125 0.33203125 C-16.14453125 0.99203125 -16.14453125 1.65203125 -16.14453125 2.33203125 C-17.53671875 2.73421875 -17.53671875 2.73421875 -18.95703125 3.14453125 C-21.9396674 4.25570942 -23.26318582 4.85657674 -25.14453125 7.33203125 C-25.47453125 8.32203125 -25.80453125 9.31203125 -26.14453125 10.33203125 C-27.13453125 10.99203125 -28.12453125 11.65203125 -29.14453125 12.33203125 C-29.54820888 14.82693543 -29.54820888 14.82693543 -29.39453125 17.64453125 C-29.3790625 18.58941406 -29.36359375 19.53429687 -29.34765625 20.5078125 C-29.21212566 23.32132631 -29.21212566 23.32132631 -28.5703125 25.98046875 C-27.98968697 29.18722625 -28.96573247 31.35036374 -30.14453125 34.33203125 C-31.13453125 34.33203125 -32.12453125 34.33203125 -33.14453125 34.33203125 C-32.80292969 33.6359375 -32.46132813 32.93984375 -32.109375 32.22265625 C-30.97070706 28.81126242 -31.23154339 26.62891368 -31.70703125 23.08203125 C-32.40975537 15.58912948 -31.41749078 9.97290292 -26.76953125 3.95703125 C-19.37919182 -3.43330818 -9.2421896 -5.22063804 0 0 Z " fill="#37A255" transform="translate(388.14453125,77.66796875)"/>
<path d="M0 0 C2.375 1.5625 2.375 1.5625 4 4 C4.7099846 8.9698922 4.79117716 10.84919686 1.9375 15 C-1.76272533 17.51930235 -3.6031656 17.7066341 -8 17 C-11.43250143 15.0598905 -12.70166193 13.85772196 -14 10.125 C-14 6.22139607 -13.19395541 4.21780127 -11 1 C-7.17488966 -1.37777129 -4.26298003 -1.26982384 0 0 Z " fill="#70C340" transform="translate(355,281)"/>
<path d="M0 0 C2.86972996 1.99633389 4.65210765 3.47229883 5.44921875 6.97265625 C5.63063966 10.3195592 5.22262069 12.62896551 3.5 15.5 C-0.03067876 17.61840725 -2.98396388 17.79990863 -7 17 C-10.33219018 14.86398066 -10.89315459 13.3672811 -12 9.5625 C-12 6 -12 6 -10.1875 3.125 C-6.81905269 -0.14720596 -4.66713665 -0.5490749 0 0 Z " fill="#6EC143" transform="translate(156,207)"/>
<path d="M0 0 C1.79244141 0.01740234 1.79244141 0.01740234 3.62109375 0.03515625 C5.41740234 0.04869141 5.41740234 0.04869141 7.25 0.0625 C8.17683594 0.07410156 9.10367187 0.08570312 10.05859375 0.09765625 C10.38859375 2.07765625 10.71859375 4.05765625 11.05859375 6.09765625 C12.19296875 6.38640625 13.32734375 6.67515625 14.49609375 6.97265625 C15.67171875 7.34390625 16.84734375 7.71515625 18.05859375 8.09765625 C19.30236768 10.58520411 19.1916561 12.32420926 19.18359375 15.09765625 C19.18746094 16.42796875 19.18746094 16.42796875 19.19140625 17.78515625 C19.05859375 20.09765625 19.05859375 20.09765625 18.05859375 22.09765625 C15.73702778 22.50494853 13.40171505 22.84204302 11.05859375 23.09765625 C10.72859375 25.40765625 10.39859375 27.71765625 10.05859375 30.09765625 C7.91282738 30.12451563 5.7669673 30.14398713 3.62109375 30.16015625 C2.42613281 30.17175781 1.23117187 30.18335938 0 30.1953125 C-2.94140625 30.09765625 -2.94140625 30.09765625 -3.94140625 29.09765625 C-3.98233562 26.76468192 -3.98382348 24.430604 -3.94140625 22.09765625 C-5.64296875 22.12859375 -5.64296875 22.12859375 -7.37890625 22.16015625 C-10.94140625 22.09765625 -10.94140625 22.09765625 -11.94140625 21.09765625 C-12.01384678 19.07801426 -12.02517813 17.05598501 -12.00390625 15.03515625 C-11.99488281 13.93042969 -11.98585938 12.82570312 -11.9765625 11.6875 C-11.96496094 10.83285156 -11.95335937 9.97820312 -11.94140625 9.09765625 C-8.8533093 7.33302942 -7.70828489 7.09765625 -3.94140625 7.09765625 C-3.96203125 6.12828125 -3.98265625 5.15890625 -4.00390625 4.16015625 C-3.92166227 0.13020127 -3.92166227 0.13020127 0 0 Z M-2.94140625 1.09765625 C-2.94140625 3.73765625 -2.94140625 6.37765625 -2.94140625 9.09765625 C-5.25140625 9.09765625 -7.56140625 9.09765625 -9.94140625 9.09765625 C-9.94140625 12.72765625 -9.94140625 16.35765625 -9.94140625 20.09765625 C-6.97140625 20.42765625 -4.00140625 20.75765625 -0.94140625 21.09765625 C-0.94140625 20.43765625 -0.94140625 19.77765625 -0.94140625 19.09765625 C-0.28140625 19.09765625 0.37859375 19.09765625 1.05859375 19.09765625 C0.39859375 21.07765625 -0.26140625 23.05765625 -0.94140625 25.09765625 C2.24349382 25.37500635 2.24349382 25.37500635 5.05859375 23.09765625 C5.05859375 24.41765625 5.05859375 25.73765625 5.05859375 27.09765625 C5.71859375 27.09765625 6.37859375 27.09765625 7.05859375 27.09765625 C7.05859375 25.11765625 7.05859375 23.13765625 7.05859375 21.09765625 C10.35859375 21.09765625 13.65859375 21.09765625 17.05859375 21.09765625 C17.05859375 17.13765625 17.05859375 13.17765625 17.05859375 9.09765625 C14.41859375 9.09765625 11.77859375 9.09765625 9.05859375 9.09765625 C9.05859375 6.45765625 9.05859375 3.81765625 9.05859375 1.09765625 C5.09859375 1.09765625 1.13859375 1.09765625 -2.94140625 1.09765625 Z " fill="#A6D48A" transform="translate(282.94140625,124.90234375)"/>
<path d="M0 0 C2.81972931 2.36493426 2.97850831 3.8280665 3.4375 7.5 C3 11 3 11 1.4375 13.4375 C-1.98314143 15.63021887 -4.00951279 15.63007693 -8 15 C-11 13 -11 13 -13 10 C-13.37468449 7.08200259 -13.06531397 4.74022427 -12 2 C-8.21756349 -1.67118838 -4.91043443 -1.36400956 0 0 Z " fill="#72C043" transform="translate(379,269)"/>
<path d="M0 0 C1.17038949 3.43208811 0.78975161 5.43974224 -0.25 8.875 C-5.5582752 29.20715499 -5.65587368 50.12807305 -6 71 C-9.74445596 69.59279625 -12.05294449 68.2968823 -14.8125 65.375 C-15.71935547 64.42753906 -15.71935547 64.42753906 -16.64453125 63.4609375 C-17.09183594 62.97882813 -17.53914062 62.49671875 -18 62 C-17.67 61.34 -17.34 60.68 -17 60 C-16.5875 60.474375 -16.175 60.94875 -15.75 61.4375 C-13.817815 63.16266518 -12.51807725 63.56584875 -10 64 C-8.31851548 60.63703095 -8.65251055 56.82315066 -8.5 53.1171875 C-8.45939453 52.22895294 -8.41878906 51.34071838 -8.37695312 50.42556763 C-8.24703357 47.57555118 -8.12300785 44.72532254 -8 41.875 C-7.87654425 39.04612718 -7.75171284 36.21734325 -7.62304688 33.38870239 C-7.54307349 31.62799875 -7.46608391 29.86715616 -7.39257812 28.10617065 C-6.76223203 14.14334805 -6.76223203 14.14334805 -4 10 C-3.34 10 -2.68 10 -2 10 C-2.20625 9.21625 -2.4125 8.4325 -2.625 7.625 C-2.74875 6.75875 -2.8725 5.8925 -3 5 C-2.34 4.34 -1.68 3.68 -1 3 C-0.67 2.01 -0.34 1.02 0 0 Z " fill="#AED893" transform="translate(233,187)"/>
<path d="M0 0 C1.9375 1.625 1.9375 1.625 3 4 C2.93439072 7.739729 2.76345433 10.0603639 0.375 13 C-3.14974145 14.48410166 -5.36810976 14.05654989 -9 13 C-11.56809203 10.19114934 -12 8.67384851 -12 4.875 C-11 2 -11 2 -8.8125 0.0625 C-5.32408458 -1.25534582 -3.53311738 -1.15210349 0 0 Z " fill="#B0D895" transform="translate(162,182)"/>
<path d="M0 0 C-0.57572754 0.21011719 -1.15145508 0.42023438 -1.74462891 0.63671875 C-9.87602963 4.26190507 -12.1114413 10.06302524 -15.375 18 C-16.38084772 20.33418098 -17.38859104 22.66754623 -18.3984375 25 C-19.04304932 26.546875 -19.04304932 26.546875 -19.70068359 28.125 C-23.06723358 35.57417185 -23.06723358 35.57417185 -26.875 37.3125 C-29.71794995 37.93794899 -32.10533028 38.17027469 -35 38 C-35 36.35 -35 34.7 -35 33 C-31.7 33.33 -28.4 33.66 -25 34 C-25.0825 32.9275 -25.165 31.855 -25.25 30.75 C-24.95342239 26.30133585 -24.10338541 25.91530145 -21 23 C-20.19684346 19.85518209 -20.19684346 19.85518209 -20 17 C-19.01 17 -18.02 17 -17 17 C-16.87625 16.29875 -16.7525 15.5975 -16.625 14.875 C-15.55003252 9.93014961 -14.33839068 4.87684079 -11 1 C-3.54008439 -1.77004219 -3.54008439 -1.77004219 0 0 Z " fill="#37A757" transform="translate(389,113)"/>
<path d="M0 0 C0 3.75576133 -1.00674357 4.54275863 -3.375 7.375 C-5.99034258 10.50695346 -7.55049079 13.20025776 -9 17 C-17.37716763 31.12572254 -17.37716763 31.12572254 -23 33 C-23 33.66 -23 34.32 -23 35 C-23.66 35 -24.32 35 -25 35 C-25.598125 35.763125 -26.19625 36.52625 -26.8125 37.3125 C-29.05059551 40.0621602 -30.83422322 41.45769849 -34 43 C-34.99 43 -35.98 43 -37 43 C-35.82244141 41.83984375 -35.82244141 41.83984375 -34.62109375 40.65625 C-26.75769311 32.87550335 -19.28571815 25.14286276 -13 16 C-14.98 16.99 -14.98 16.99 -17 18 C-15.38405168 15.95880212 -13.7143618 13.95927063 -12 12 C-11.34 12 -10.68 12 -10 12 C-9.75507813 11.42765625 -9.51015625 10.8553125 -9.2578125 10.265625 C-7.78889901 7.61975598 -6.04651756 5.85146861 -3.875 3.75 C-3.15054688 3.04359375 -2.42609375 2.3371875 -1.6796875 1.609375 C-1.12539063 1.07828125 -0.57109375 0.5471875 0 0 Z " fill="#58BA76" transform="translate(356,186)"/>
<path d="M0 0 C3.03522895 1.63435405 5.28352297 3.055553 7.375 5.8125 C8.72789093 10.54761825 8.5517493 13.91693656 6.3125 18.3125 C3.81094957 21.21970726 2.72680887 22.23769819 -1 23 C-3.86421143 22.98896258 -6.14985166 22.60740866 -9 22 C-9.66 21.01 -10.32 20.02 -11 19 C-10.01 19.33 -9.02 19.66 -8 20 C-6.04322445 20.15754704 -6.04322445 20.15754704 -4 20.125 C-2.9790625 20.12886719 -2.9790625 20.12886719 -1.9375 20.1328125 C0.21874781 20.06631126 0.21874781 20.06631126 3 19 C3.16947579 17.58366664 3.33545507 16.16691467 3.5 14.75 C3.63921875 13.56664062 3.63921875 13.56664062 3.78125 12.359375 C4.06154619 9.73109603 4.06154619 9.73109603 4 6 C2.68 6 1.36 6 0 6 C0 5.34 0 4.68 0 4 C-4.06572629 4.1870631 -4.06572629 4.1870631 -8 5 C-9.91744593 7.44309577 -9.91744593 7.44309577 -11 10 C-11.66 10 -12.32 10 -13 10 C-13 11.98 -13 13.96 -13 16 C-13.33 16 -13.66 16 -14 16 C-14.62376238 8.0470297 -14.62376238 8.0470297 -12.25 4.0625 C-8.27587957 0.41955627 -5.45608596 -0.65473031 0 0 Z " fill="#AED791" transform="translate(281,315)"/>
<path d="M0 0 C3.0625 2.4375 3.0625 2.4375 5 5 C5.33 5.33 5.66 5.66 6 6 C6.55720584 9.78103961 6.84003776 13.47978241 4.953125 16.89453125 C1.84085497 20.65671649 0.08318614 21.89168139 -4.75 22.375 C-8.10058068 22.35058775 -9.84894532 21.75601354 -12.4375 19.625 C-15.65732764 16.32663998 -15.94618143 15.82073313 -16.25 11.1875 C-16.20129814 7.35396815 -15.43073001 5.06091927 -13 2 C-8.77818108 -0.81454595 -4.95969791 -0.80684081 0 0 Z M-14 7 C-15.40110154 11.05582025 -15.47022917 12.96997419 -13.6875 16.875 C-12.17274837 19.0895931 -12.17274837 19.0895931 -10 20 C-8.29297265 20.06996014 -6.58331997 20.08440154 -4.875 20.0625 C-3.96492187 20.05347656 -3.05484375 20.04445313 -2.1171875 20.03515625 C-1.41851562 20.02355469 -0.71984375 20.01195312 0 20 C0 18.68 0 17.36 0 16 C1.32 16 2.64 16 4 16 C3.98715005 12.5754874 3.83648861 9.32986814 3 6 C-2.95679744 1.59714972 -8.35498732 2.70023533 -14 7 Z " fill="#ABD88E" transform="translate(204,299)"/>
<path d="M0 0 C1.4540625 0.0309375 1.4540625 0.0309375 2.9375 0.0625 C-9.54123844 11.2933646 -26.58560323 14.45929557 -42.8125 14.375 C-43.85148437 14.37371094 -44.89046875 14.37242187 -45.9609375 14.37109375 C-54.30123669 14.26761609 -62.00886576 13.23078614 -70.0625 11.0625 C-70.0625 10.7325 -70.0625 10.4025 -70.0625 10.0625 C-65.76169674 9.90321099 -61.99905216 9.99433356 -57.8125 11 C-49.41229161 12.86818515 -40.63339893 12.75559445 -32.0625 13.0625 C-32.0625 12.4025 -32.0625 11.7425 -32.0625 11.0625 C-34.7025 11.0625 -37.3425 11.0625 -40.0625 11.0625 C-40.0625 10.7325 -40.0625 10.4025 -40.0625 10.0625 C-38.80759766 10.00642578 -38.80759766 10.00642578 -37.52734375 9.94921875 C-28.57580144 9.44364992 -19.71829067 8.5104841 -11.0625 6.0625 C-10.7325 5.4025 -10.4025 4.7425 -10.0625 4.0625 C-8.07929982 3.02958324 -6.07902194 2.0287501 -4.0625 1.0625 C-3.0625 0.0625 -3.0625 0.0625 0 0 Z " fill="#8DD7A2" transform="translate(336.0625,267.9375)"/>
<path d="M0 0 C3.53795636 2.53809913 5.24415028 4.70800938 6.0625 8.9375 C6.28892429 12.26467911 5.89757185 13.2048563 4.3125 16.375 C1.0539698 20.07387212 -0.509887 20.8068372 -5.375 21.4375 C-10.1853299 20.85694294 -11.61392593 19.38607407 -15 16 C-16.5547669 12.89046621 -16.28644437 10.43733239 -16 7 C-14.27022143 3.60450873 -12.93208897 1.57940666 -9.6875 -0.4375 C-6.06099111 -1.19653674 -3.58424608 -0.96006591 0 0 Z M-8 1 C-8.99 2.485 -8.99 2.485 -10 4 C-10.99 4.33 -11.98 4.66 -13 5 C-14.29729618 11.4852291 -14.29729618 11.4852291 -12.625 17.625 C-8.78219179 19.63789954 -5.25182098 19.32706315 -1 19 C0.88160256 15.37503507 2.33782 12.16204801 1.6875 8 C0.87288204 5.63020231 -0.03627131 3.31294887 -1 1 C-4.41642759 0.74984127 -4.41642759 0.74984127 -8 1 Z " fill="#96C973" transform="translate(184,281)"/>
<path d="M0 0 C2.4375 1.5625 2.4375 1.5625 4 4 C3.78571429 10.21428571 3.78571429 10.21428571 1 13 C-3.33643601 13.31537716 -5.32653229 13.44897847 -9 11 C-9.89562115 7.83087902 -10.28915213 5.82297146 -9.1875 2.6875 C-6.80195032 -0.70249164 -3.87083762 -0.38708376 0 0 Z " fill="#B1D694" transform="translate(403,261)"/>
<path d="M0 0 C3.47485838 2.07012839 5.74352278 4.11634312 7 8 C7.51555338 11.9525759 7.15914688 13.7044415 5.25 17.25 C2.08326621 21.12045242 0.56190022 21.82645553 -4.375 22.375 C-8.7179218 21.92573223 -10.70673134 20.8337428 -14 18 C-16.27668877 14.43648715 -16.35016699 11.10100191 -15.65625 6.9375 C-14.74150108 4.23681272 -13.19010365 2.4905556 -10.87890625 0.84765625 C-7.27812029 -0.77681475 -3.8321677 -0.77067579 0 0 Z M-12 3 C-14.68652977 7.02979465 -14.40344574 9.23934031 -14 14 C-13.34 14 -12.68 14 -12 14 C-11.814375 14.639375 -11.62875 15.27875 -11.4375 15.9375 C-10.08142815 18.33135692 -10.08142815 18.33135692 -6.8125 19 C-1.92094143 19 -0.0032101 17.69603946 4 15 C3.88490339 13.58249437 3.75746342 12.16598831 3.625 10.75 C3.55539063 9.96109375 3.48578125 9.1721875 3.4140625 8.359375 C2.9787895 5.87914019 2.31630309 4.14017625 1 2 C-3.65679343 -0.32839672 -7.86877753 0.24585169 -12 3 Z " fill="#B4DC9A" transform="translate(228,311)"/>
<path d="M0 0 C0.66 0 1.32 0 2 0 C1.37189917 7.61334339 -0.74054194 14.68622974 -2.875 22 C-3.22691406 23.23234375 -3.57882812 24.4646875 -3.94140625 25.734375 C-5.72989186 31.93091251 -7.61730242 38.00579225 -10 44 C-11.23481451 40.29555647 -11.443658 36.85523506 -11 33 C-10.02616054 31.31791365 -9.02304948 29.65261839 -8 28 C-7.40756229 25.53150954 -6.97648839 23.05433341 -6.53515625 20.5546875 C-5.89470124 17.49733293 -4.82478018 14.76908205 -3.65625 11.8828125 C-2.65158351 9.0003765 -2.41377588 6.01465286 -2 3 C-1.34 2.01 -0.68 1.02 0 0 Z " fill="#77C68F" transform="translate(399,151)"/>
<path d="M0 0 C3.73487777 0.4979837 5.81237635 0.87491756 9 3 C9.39964378 6.1305429 9.52149743 8.13083761 7.875 10.875 C5.10703881 12.53577671 3.16909182 12.38805206 0 12 C-2.375 10.5 -2.375 10.5 -4 9 C-3.46930939 5.17902761 -2.50298434 2.93828597 0 0 Z " fill="#6FC440" transform="translate(153,237)"/>
<path d="M0 0 C0 0.99 0 1.98 0 3 C-0.66 3.66 -1.32 4.32 -2 5 C-2.103125 5.804375 -2.20625 6.60875 -2.3125 7.4375 C-2.539375 8.283125 -2.76625 9.12875 -3 10 C-4.2375 10.680625 -4.2375 10.680625 -5.5 11.375 C-8.42072077 12.85766358 -8.42072077 12.85766358 -8.8125 16.6875 C-8.874375 17.780625 -8.93625 18.87375 -9 20 C-10.32 20.33 -11.64 20.66 -13 21 C-13.03738281 21.56847656 -13.07476562 22.13695312 -13.11328125 22.72265625 C-13.57285229 28.12036322 -14.69917295 32.11074252 -17 37 C-17.37308631 38.32276056 -17.73046415 39.65232077 -18 41 C-18.66 41 -19.32 41 -20 41 C-20.33 42.32 -20.66 43.64 -21 45 C-23.37067747 38.92326345 -19.35848042 31.70831776 -17 26 C-12.64184704 16.29835396 -7.75967925 7.42138261 0 0 Z " fill="#7AC990" transform="translate(269,191)"/>
<path d="M0 0 C2.82424288 2.19022918 4.41508603 3.83017207 6 7 C6.04079849 11.22672392 5.69610539 14.88623137 3.4375 18.5 C0.05785041 20.57978436 -3.04986353 21.10522905 -7 21 C-9.5 20.0625 -9.5 20.0625 -11 19 C-8.08689608 17.54344804 -5.39574735 18.07832717 -2.19140625 18.2578125 C0.05543002 18.17223109 0.05543002 18.17223109 1.7421875 16.75390625 C3.2286066 14.68122868 3.48049435 13.3379689 3.6875 10.8125 C3.790625 9.554375 3.89375 8.29625 4 7 C2.68 6.67 1.36 6.34 0 6 C0 5.01 0 4.02 0 3 C-3.63 3 -7.26 3 -11 3 C-11 3.66 -11 4.32 -11 5 C-11.99 5.495 -11.99 5.495 -13 6 C-13 9.3 -13 12.6 -13 16 C-15 15 -15 15 -15.75 12.8125 C-16.14470746 8.3720411 -14.84927504 5.34468548 -12.5 1.625 C-8.5370234 -0.95093479 -4.57801989 -0.8815281 0 0 Z " fill="#B2DA96" transform="translate(309,309)"/>
<path d="M0 0 C0.99 0.33 1.98 0.66 3 1 C3.81542969 2.81005859 3.81542969 2.81005859 4.421875 5.1484375 C4.64230469 5.98890625 4.86273438 6.829375 5.08984375 7.6953125 C5.30769531 8.57960937 5.52554688 9.46390625 5.75 10.375 C5.98332031 11.2515625 6.21664062 12.128125 6.45703125 13.03125 C8.13392181 19.59823458 8.13392181 19.59823458 7 23 C3.94226163 17.61255621 2.50170462 11.98551772 1 6 C-2.91466944 9.16762275 -2.91466944 9.16762275 -6.5625 12.625 C-8 14 -8 14 -10.25 15.1875 C-14.22860108 17.80975981 -16.98666319 21.34404957 -20 25 C-20 20.86539788 -17.77982332 19.25825086 -15.0625 16.4375 C-14.05681954 15.36893373 -13.05161918 14.29991543 -12.046875 13.23046875 C-11.53833984 12.69341309 -11.02980469 12.15635742 -10.50585938 11.60302734 C-8.23561911 9.18629622 -6.02501805 6.71970566 -3.8125 4.25 C-3.07644531 3.43015625 -2.34039062 2.6103125 -1.58203125 1.765625 C-1.05996094 1.18296875 -0.53789062 0.6003125 0 0 Z " fill="#B4DB99" transform="translate(247,126)"/>
<path d="M0 0 C-0.66 0.33 -1.32 0.66 -2 1 C-2.99 0.505 -3.98 0.01 -5 -0.5 C-9.69444944 -2.63116219 -14.0727718 -2.24644652 -19 -1 C-21.94900524 0.72376805 -21.94900524 0.72376805 -24 3 C-24.5775 3.515625 -25.155 4.03125 -25.75 4.5625 C-27.24543588 6.09651001 -27.24543588 6.09651001 -28 9 C-28.99 9.66 -29.98 10.32 -31 11 C-31.40367763 13.49490418 -31.40367763 13.49490418 -31.25 16.3125 C-31.23453125 17.25738281 -31.2190625 18.20226562 -31.203125 19.17578125 C-31.06759441 21.98929506 -31.06759441 21.98929506 -30.42578125 24.6484375 C-29.84515572 27.855195 -30.82120122 30.01833249 -32 33 C-32.99 33 -33.98 33 -35 33 C-34.65839844 32.30390625 -34.31679688 31.6078125 -33.96484375 30.890625 C-32.82617581 27.47923117 -33.08701214 25.29688243 -33.5625 21.75 C-34.26522412 14.25709823 -33.27295953 8.64087167 -28.625 2.625 C-20.04245027 -5.95754973 -10.06645681 -5.8568476 0 0 Z " fill="#8FD2A2" transform="translate(390,79)"/>
<path d="M0 0 C2.81972931 2.36493426 2.97850831 3.8280665 3.4375 7.5 C3 11 3 11 1.4375 13.4375 C-1.98314143 15.63021887 -4.00951279 15.63007693 -8 15 C-11 13 -11 13 -13 10 C-13.37468449 7.08200259 -13.06531397 4.74022427 -12 2 C-8.21756349 -1.67118838 -4.91043443 -1.36400956 0 0 Z M-11 3 C-11.16677282 6.58343976 -11.16677282 6.58343976 -11 10 C-10.0409375 10.1546875 -10.0409375 10.1546875 -9.0625 10.3125 C-8.381875 10.539375 -7.70125 10.76625 -7 11 C-6.67 11.99 -6.34 12.98 -6 14 C-4.68 13.67 -3.36 13.34 -2 13 C-2 12.34 -2 11.68 -2 11 C-1.34 11 -0.68 11 0 11 C-0.60990891 7.44219804 -1.5783681 4.3171411 -3 1 C-7.49304582 0.57496554 -7.49304582 0.57496554 -11 3 Z " fill="#A1D07E" transform="translate(379,269)"/>
<path d="M0 0 C2.58367261 3.44489681 2.34409057 6.26424904 2.125 10.5 C1.22838057 13.72782994 0.25647712 14.41132939 -2.5625 16.3125 C-6.49831784 17.72345356 -8.85365944 17.52504759 -12.875 16.5 C-13.205 15.84 -13.535 15.18 -13.875 14.5 C-10.575 14.5 -7.275 14.5 -3.875 14.5 C-4.21944881 12.02733235 -4.21944881 12.02733235 -4.875 9.5 C-5.535 9.17 -6.195 8.84 -6.875 8.5 C-6.875 7.84 -6.875 7.18 -6.875 6.5 C-3 7.375 -3 7.375 -1.875 8.5 C-2.44952746 4.56924356 -2.44952746 4.56924356 -4.875 1.5 C-4.875 0.51 -4.875 -0.48 -4.875 -1.5 C-9.33 -1.005 -9.33 -1.005 -13.875 -0.5 C-12.875 -2.5 -12.875 -2.5 -11.25 -3.25 C-7.10028989 -3.68681159 -3.26162272 -2.60929818 0 0 Z " fill="#A4D484" transform="translate(171.875,261.5)"/>
<path d="M0 0 C1.875 1.75 1.875 1.75 3 4 C2.5 6.625 2.5 6.625 1 9 C-1.375 10.4375 -1.375 10.4375 -4 11 C-6.25 10.4375 -6.25 10.4375 -8 9 C-9.09809194 5.70572419 -9.11196276 4.33588828 -8 1 C-5.09817177 -1.00126085 -3.24908468 -1.46732856 0 0 Z " fill="#B6D99D" transform="translate(173,159)"/>
<path d="M0 0 C0.66 0 1.32 0 2 0 C2.06058594 0.69867188 2.12117187 1.39734375 2.18359375 2.1171875 C2.26738281 3.02726562 2.35117188 3.93734375 2.4375 4.875 C2.51871094 5.77992188 2.59992188 6.68484375 2.68359375 7.6171875 C2.86989285 10.01110861 2.86989285 10.01110861 4 12 C6.3431213 11.74438677 8.67843403 11.40729228 11 11 C11.33 10.34 11.66 9.68 12 9 C12.38133299 10.9914056 12.71325582 12.99279077 13 15 C12 16 12 16 8.25 16.25 C4.40352079 16.20856575 2.0798451 15.42654462 -1 13 C-2.5121867 9.97562661 -2.17263369 7.33758466 -2 4 C-1 1.5625 -1 1.5625 0 0 Z " fill="#72C242" transform="translate(156,261)"/>
<path d="M0 0 C-0.33 0.66 -0.66 1.32 -1 2 C-3.06640625 2.4140625 -3.06640625 2.4140625 -5.5625 2.625 C-6.38878906 2.69976562 -7.21507812 2.77453125 -8.06640625 2.8515625 C-9.02353516 2.92503906 -9.02353516 2.92503906 -10 3 C-10 4.32 -10 5.64 -10 7 C-11.65 7 -13.3 7 -15 7 C-15 6.34 -15 5.68 -15 5 C-18.63 5.66 -22.26 6.32 -26 7 C-26.33 7.99 -26.66 8.98 -27 10 C-29.64 9.67 -32.28 9.34 -35 9 C-35.33 9.66 -35.66 10.32 -36 11 C-38.97 10.505 -38.97 10.505 -42 10 C-38.87475263 8.27751002 -35.89108863 7.37393153 -32.421875 6.5625 C-30.80345703 6.17964844 -30.80345703 6.17964844 -29.15234375 5.7890625 C-28.02957031 5.52867187 -26.90679687 5.26828125 -25.75 5 C-23.53639076 4.47945394 -21.32284761 3.95862673 -19.109375 3.4375 C-18.05943359 3.19241699 -17.00949219 2.94733398 -15.92773438 2.69482422 C-13.4074075 2.09668794 -10.89855142 1.46794492 -8.390625 0.8203125 C-5.42280378 0.10229124 -3.02984131 -0.18936508 0 0 Z " fill="#52BC72" transform="translate(354,157)"/>
<path d="M0 0 C2.31 0 4.62 0 7 0 C4.41481268 2.97392039 1.44970786 4.51117819 -2.0234375 6.3203125 C-2.6066275 6.62444061 -3.1898175 6.92856873 -3.79067993 7.24191284 C-5.02142662 7.88170535 -6.25367186 8.51862236 -7.48730469 9.15283203 C-9.36606405 10.12039796 -11.23786893 11.10052373 -13.109375 12.08203125 C-14.30949728 12.70389477 -15.51000588 13.32501341 -16.7109375 13.9453125 C-17.79681152 14.50750488 -18.88268555 15.06969727 -20.00146484 15.64892578 C-22.72512306 16.87614648 -25.05839215 17.56847329 -28 18 C-24.54319097 15.23455278 -20.85658398 13.15078722 -17 11 C-17.33 10.34 -17.66 9.68 -18 9 C-16.02 9 -14.04 9 -12 9 C-12 8.34 -12 7.68 -12 7 C-10.35 6.67 -8.7 6.34 -7 6 C-7 5.34 -7 4.68 -7 4 C-4.69 3.34 -2.38 2.68 0 2 C0 1.34 0 0.68 0 0 Z " fill="#76CC90" transform="translate(276,246)"/>
<path d="M0 0 C0.33 0 0.66 0 1 0 C1 2.64 1 5.28 1 8 C-1.31 8 -3.62 8 -6 8 C-6 11.63 -6 15.26 -6 19 C-3.36 19 -0.72 19 2 19 C2 21.97 2 24.94 2 28 C5.96 28 9.92 28 14 28 C14 28.33 14 28.66 14 29 C11.85423363 29.02685938 9.70837355 29.04633088 7.5625 29.0625 C6.36753906 29.07410156 5.17257812 29.08570313 3.94140625 29.09765625 C1 29 1 29 0 28 C-0.04092937 25.66702567 -0.04241723 23.33294775 0 21 C-1.7015625 21.0309375 -1.7015625 21.0309375 -3.4375 21.0625 C-7 21 -7 21 -8 20 C-8.07244053 17.98035801 -8.08377188 15.95832876 -8.0625 13.9375 C-8.05347656 12.83277344 -8.04445313 11.72804687 -8.03515625 10.58984375 C-8.02355469 9.73519531 -8.01195312 8.88054687 -8 8 C-4.91190305 6.23537317 -3.76687864 6 0 6 C0 4.02 0 2.04 0 0 Z " fill="#C6EAB2" transform="translate(279,126)"/>
<path d="M0 0 C0.99 0.103125 1.98 0.20625 3 0.3125 C5 3.3125 5 3.3125 4.625 6.5 C4.41875 7.428125 4.2125 8.35625 4 9.3125 C0.625 9.9375 0.625 9.9375 -3 10.3125 C-5 8.3125 -5 8.3125 -5.25 5.3125 C-4.90578549 1.18192588 -4.11441953 0.42858537 0 0 Z " fill="#AFD790" transform="translate(428,258.6875)"/>
<path d="M0 0 C1.21886571 3.65659713 0.6818428 4.41277187 -0.80859375 7.8671875 C-1.22254395 8.83003662 -1.63649414 9.79288574 -2.06298828 10.78491211 C-2.74337158 12.31450562 -2.74337158 12.31450562 -3.4375 13.875 C-4.1178833 15.42489624 -4.1178833 15.42489624 -4.81201172 17.00610352 C-8.29073997 24.7738833 -12.17964384 31.98490067 -17 39 C-18.53445094 35.93109813 -17.54984289 33.29905734 -17 30 C-16.01 30 -15.02 30 -14 30 C-13.8453125 29.1028125 -13.8453125 29.1028125 -13.6875 28.1875 C-12.89505679 25.66608978 -11.88056492 24.80534232 -10 23 C-8.52458893 20.67040358 -7.98938735 19.40328086 -8.0625 16.625 C-7.97961874 13.14398714 -6.75427158 10.96876729 -5 8 C-4.34 7.67 -3.68 7.34 -3 7 C-1.94647157 4.69034152 -0.94280904 2.3570226 0 0 Z " fill="#81CD96" transform="translate(386,198)"/>
<path d="M0 0 C2.4375 0.375 2.4375 0.375 4.4375 2.375 C4.625 5.9375 4.625 5.9375 4.4375 9.375 C3.4375 10.375 3.4375 10.375 0.5 10.5 C-2.5625 10.375 -2.5625 10.375 -4.5625 9.375 C-5.375 7.0625 -5.375 7.0625 -5.5625 4.375 C-4.08680215 1.34162108 -3.37518981 0.49393022 0 0 Z " fill="#9CCD7C" transform="translate(188.5625,138.625)"/>
<path d="M0 0 C1.25144464 3.56955687 0.71591703 5.84535142 -0.3125 9.4375 C-2.05005516 15.90152401 -3.09166928 22.37452886 -4 29 C-4.66 29 -5.32 29 -6 29 C-6 31.64 -6 34.28 -6 37 C-6.33 37 -6.66 37 -7 37 C-7.24179104 14.86268657 -7.24179104 14.86268657 -4 10 C-3.34 10 -2.68 10 -2 10 C-2.309375 8.824375 -2.309375 8.824375 -2.625 7.625 C-2.74875 6.75875 -2.8725 5.8925 -3 5 C-2.34 4.34 -1.68 3.68 -1 3 C-0.67 2.01 -0.34 1.02 0 0 Z " fill="#75B84B" transform="translate(233,187)"/>
<path d="M0 0 C2.875 1.375 2.875 1.375 5 3 C5 3.66 5 4.32 5 5 C1.42355152 6.2380014 -1.33694766 5.74926071 -5 5 C-5.99 6.485 -5.99 6.485 -7 8 C-8.32 7.67 -9.64 7.34 -11 7 C-11 9.31 -11 11.62 -11 14 C-13 11 -13 11 -12.4375 7.5625 C-9.98092063 1.47445547 -6.59439369 -0.96168241 0 0 Z " fill="#A4D281" transform="translate(331,296)"/>
<path d="M0 0 C1 3 1 3 -0.44140625 6.50390625 C-1.13734226 7.86251173 -1.84488514 9.21521952 -2.5625 10.5625 C-2.89830078 11.24763672 -3.23410156 11.93277344 -3.58007812 12.63867188 C-5.44257241 16.17290219 -6.3837781 17.71015036 -10.09765625 19.45703125 C-12.82046896 19.96641344 -15.23873858 20.16242714 -18 20 C-18 18.35 -18 16.7 -18 15 C-14.7 15.33 -11.4 15.66 -8 16 C-8.0825 14.906875 -8.165 13.81375 -8.25 12.6875 C-8 9 -8 9 -6.1875 7.3125 C-5.465625 6.879375 -4.74375 6.44625 -4 6 C-2.39996097 4.04439674 -1.12882846 2.25765692 0 0 Z " fill="#71C88B" transform="translate(372,131)"/>
<path d="M0 0 C0.99 0.66 1.98 1.32 3 2 C3 3.32 3 4.64 3 6 C2.01 6 1.02 6 0 6 C0 5.34 0 4.68 0 4 C-4.06572629 4.1870631 -4.06572629 4.1870631 -8 5 C-9.91744593 7.44309577 -9.91744593 7.44309577 -11 10 C-11.66 10 -12.32 10 -13 10 C-13 11.98 -13 13.96 -13 16 C-13.33 16 -13.66 16 -14 16 C-14.62376238 8.0470297 -14.62376238 8.0470297 -12.25 4.0625 C-8.22447291 0.3724335 -5.50919996 -0.46886808 0 0 Z " fill="#97CB76" transform="translate(281,315)"/>
<path d="M0 0 C3.5878699 1.02510569 4.90565542 1.83944096 7.0625 4.875 C8.11071378 8.71845052 8.45674009 10.91130199 6.9375 14.625 C4.77834574 17.21598512 3.18145189 18.56939223 0.0625 19.875 C-3.1875 19.6875 -3.1875 19.6875 -5.9375 18.875 C-6.2675 18.215 -6.5975 17.555 -6.9375 16.875 C-3.9675 16.875 -0.9975 16.875 2.0625 16.875 C2.3925 15.555 2.7225 14.235 3.0625 12.875 C3.7225 12.875 4.3825 12.875 5.0625 12.875 C5.0625 10.895 5.0625 8.915 5.0625 6.875 C4.0725 6.545 3.0825 6.215 2.0625 5.875 C1.7325 4.885 1.4025 3.895 1.0625 2.875 C-1.2475 2.545 -3.5575 2.215 -5.9375 1.875 C-2.9375 -0.125 -2.9375 -0.125 0 0 Z " fill="#B2DB97" transform="translate(156.9375,233.125)"/>
<path d="M0 0 C2.49361571 1.20381448 4.68143083 2.45428722 7 4 C7.892429 7.71845415 7.82651739 11.51839105 5.9453125 14.890625 C4.17757715 17.04537933 2.50656733 18.74671634 0 20 C-5.78993435 20.36761488 -5.78993435 20.36761488 -8 20 C-8.99 19.01 -9.98 18.02 -11 17 C-7.04 17.33 -3.08 17.66 1 18 C1 16.68 1 15.36 1 14 C2.32 14 3.64 14 5 14 C4.67 13.34 4.34 12.68 4 12 C3.86584528 9.3276379 3.95681459 6.67749512 4 4 C2.68 3.34 1.36 2.68 0 2 C0 1.34 0 0.68 0 0 Z " fill="#96C973" transform="translate(203,301)"/>
<path d="M0 0 C6.0546875 -0.1953125 6.0546875 -0.1953125 8 0 C10 2 10 2 10 6 C9.34 6 8.68 6 8 6 C8 6.99 8 7.98 8 9 C5.125 9.125 5.125 9.125 2 9 C0 7 0 7 -0.125 3.375 C-0.08375 2.26125 -0.0425 1.1475 0 0 Z " fill="#6FC33F" transform="translate(152,185)"/>
<path d="M0 0 C2.99363774 2.99363774 3.17154648 6.12525485 3.3125 10.25 C3.25642163 15.91391496 1.26228057 20.61353697 -2.63671875 24.7265625 C-3.08660156 25.14679688 -3.53648437 25.56703125 -4 26 C-4.66 25.67 -5.32 25.34 -6 25 C-5.51917969 24.63261719 -5.03835938 24.26523438 -4.54296875 23.88671875 C-2.38795083 21.25159557 -2.49327654 19.17494364 -2.3125 15.8125 C-2.24675781 14.72582031 -2.18101562 13.63914062 -2.11328125 12.51953125 C-2.07589844 11.68808594 -2.03851563 10.85664062 -2 10 C-1.01 9.67 -0.02 9.34 1 9 C0.67 6.03 0.34 3.06 0 0 Z " fill="#7DCD95" transform="translate(395,86)"/>
<path d="M0 0 C0.66 0.33 1.32 0.66 2 1 C0.71142987 2.31554021 -0.58095891 3.62734097 -1.875 4.9375 C-2.59429687 5.66839844 -3.31359375 6.39929688 -4.0546875 7.15234375 C-6 9 -6 9 -8 10 C-8.12375 10.639375 -8.2475 11.27875 -8.375 11.9375 C-9 14 -9 14 -11.0625 15.25 C-11.701875 15.4975 -12.34125 15.745 -13 16 C-13 16.66 -13 17.32 -13 18 C-18.75 21 -18.75 21 -21 21 C-22.67745682 21.63903117 -24.34561387 22.30341637 -26 23 C-22.76008207 19.67283114 -19.44188894 16.64493357 -15.8125 13.75 C-10.36861083 9.34902982 -5.15703032 4.73193888 0 0 Z " fill="#86D19D" transform="translate(317,230)"/>
<path d="M0 0 C0.33 0 0.66 0 1 0 C1.31414058 6.87618829 1.16890653 12.57345219 -1.33203125 19.01953125 C-2.24148392 21.71597865 -2.21659396 24.18427856 -2 27 C-0.68 27.66 0.64 28.32 2 29 C0.02 29.66 -1.96 30.32 -4 31 C-5 30 -5 30 -5.01953125 27.91015625 C-4.32629636 18.37490648 -2.21534487 9.27353666 0 0 Z " fill="#70C186" transform="translate(246,236)"/>
<path d="M0 0 C1.60170888 4.0042722 0.34040384 7.05325536 -1 11 C-1.33 11.33 -1.66 11.66 -2 12 C-1.90982004 14.19050021 -1.75333792 16.378466 -1.5625 18.5625 C-1.46066406 19.76003906 -1.35882813 20.95757812 -1.25390625 22.19140625 C-1.17011719 23.11824219 -1.08632812 24.04507813 -1 25 C-2.48828125 23.69921875 -2.48828125 23.69921875 -4 22 C-4.1875 18.8125 -4.1875 18.8125 -4 16 C-4.66 16.99 -5.32 17.98 -6 19 C-7.4412666 11.02962206 -7.4412666 11.02962206 -5.6875 6.9375 C-5.130625 6.298125 -4.57375 5.65875 -4 5 C-3.34 5 -2.68 5 -2 5 C-1.34 3.35 -0.68 1.7 0 0 Z " fill="#9BD876" transform="translate(240,168)"/>
<path d="M0 0 C0.33 0.66 0.66 1.32 1 2 C0.01 3.485 0.01 3.485 -1 5 C-1.59321869 6.88033997 -2.13095819 8.77870208 -2.625 10.6875 C-2.88539063 11.68136719 -3.14578125 12.67523438 -3.4140625 13.69921875 C-3.60742188 14.45847656 -3.80078125 15.21773437 -4 16 C-4.66 16 -5.32 16 -6 16 C-6.33 17.65 -6.66 19.3 -7 21 C-8.65 21.33 -10.3 21.66 -12 22 C-10.50787224 16.56316666 -7.8990817 12.30936185 -4.875 7.625 C-4.40707031 6.88894531 -3.93914062 6.15289062 -3.45703125 5.39453125 C-2.31041087 3.59269922 -1.15598924 1.79583569 0 0 Z " fill="#6AC485" transform="translate(347,124)"/>
<path d="M0 0 C0.33 0 0.66 0 1 0 C1 9.24 1 18.48 1 28 C0.67 28 0.34 28 0 28 C-0.33 34.27 -0.66 40.54 -1 47 C-1.33 47 -1.66 47 -2 47 C-2.41277905 14.69210102 -2.41277905 14.69210102 0 0 Z " fill="#BAE29D" transform="translate(235,191)"/>
<path d="M0 0 C0 0.66 0 1.32 0 2 C-0.99 2 -1.98 2 -3 2 C-3.185625 2.78375 -3.37125 3.5675 -3.5625 4.375 C-5 7 -5 7 -8.625 8.3125 C-9.73875 8.539375 -10.8525 8.76625 -12 9 C-11.2236068 12.0745356 -11.2236068 12.0745356 -9 14 C-15.75 13.125 -15.75 13.125 -18 12 C-16.51519655 7.94095151 -14.33772844 6.79018893 -10.5625 4.875 C-1.07772021 0 -1.07772021 0 0 0 Z " fill="#80CA98" transform="translate(275,264)"/>
<path d="M0 0 C0.66 0.33 1.32 0.66 2 1 C1.0409375 1.7425 1.0409375 1.7425 0.0625 2.5 C-2.81515269 5.98806387 -2.70230736 8.53461041 -3 13 C-2.34 13 -1.68 13 -1 13 C-0.505 13.680625 -0.01 14.36125 0.5 15.0625 C3.55954016 17.43364362 4.50482967 17.14673414 8.25 16.75 C9.83646933 16.52074143 11.42120045 16.27719381 13 16 C12.67 16.99 12.34 17.98 12 19 C6.73242453 20.0750154 2.97096031 20.19869398 -2 18 C-4.56421268 14.63447086 -5.23832622 12.00943221 -4.9375 7.875 C-3.97190193 3.8838613 -3.18854345 2.46854977 0 0 Z " fill="#A7D28A" transform="translate(217,312)"/>
<path d="M0 0 C0.66 0.99 1.32 1.98 2 3 C1.01 3.495 1.01 3.495 0 4 C-0.33 3.34 -0.66 2.68 -1 2 C-3.31 2 -5.62 2 -8 2 C-8 2.66 -8 3.32 -8 4 C-9.65 4.33 -11.3 4.66 -13 5 C-13 8.96 -13 12.92 -13 17 C-16 14 -16 14 -16.4375 10.6875 C-15.92112198 6.33517093 -14.84578436 4.30726291 -12 1 C-7.91446761 -1.53965527 -4.58710143 -1.12513809 0 0 Z " fill="#B3DA96" transform="translate(184,281)"/>
<path d="M0 0 C2.31 0.33 4.62 0.66 7 1 C6.57594696 5.83243779 4.23464128 8.44757455 1 11.8125 C0.5359375 12.31458984 0.071875 12.81667969 -0.40625 13.33398438 C-1.57566764 14.58328956 -2.78471594 15.79526529 -4 17 C-4.33 17 -4.66 17 -5 17 C-5.4375 14.875 -5.4375 14.875 -5 12 C-3.28696587 10.28267255 -1.48572023 8.86451683 0.46875 7.4296875 C0.9740625 6.95789063 1.479375 6.48609375 2 6 C2 5.01 2 4.02 2 3 C1.34 3 0.68 3 0 3 C0 2.01 0 1.02 0 0 Z " fill="#2AAC4A" transform="translate(338,193)"/>
<path d="M0 0 C0.33 0.66 0.66 1.32 1 2 C0.39671875 1.98839844 -0.2065625 1.97679687 -0.828125 1.96484375 C-1.62734375 1.95582031 -2.4265625 1.94679688 -3.25 1.9375 C-4.03890625 1.92589844 -4.8278125 1.91429687 -5.640625 1.90234375 C-7.93924671 1.99748538 -9.83050218 2.23683594 -12 3 C-12.33 3.66 -12.66 4.32 -13 5 C-13.66 5 -14.32 5 -15 5 C-15 8.63 -15 12.26 -15 16 C-15.66 15.67 -16.32 15.34 -17 15 C-18.06739271 10.3746316 -18.46617753 7.14766221 -16 3 C-10.38456626 -2.3198846 -7.25772103 -2.60182452 0 0 Z " fill="#B0D992" transform="translate(257,318)"/>
<path d="M0 0 C0.66 0 1.32 0 2 0 C2.99 3.3 3.98 6.6 5 10 C6.65 10.33 8.3 10.66 10 11 C10.99 14.96 11.98 18.92 13 23 C6.32084726 18.67819528 2.32952753 11.52724063 0.625 3.875 C0.41875 2.59625 0.2125 1.3175 0 0 Z " fill="#A4D486" transform="translate(202,224)"/>
<path d="M0 0 C0 0.66 0 1.32 0 2 C-5.50355098 3.87621056 -10.72538437 4.40141915 -16.5234375 4.75390625 C-18.941244 4.73000361 -18.941244 4.73000361 -20 6 C-22.67058851 6.14115161 -25.32432238 6.04247107 -28 6 C-23.6895105 3.71037621 -19.25880617 2.56223728 -14.5625 1.3125 C-13.71623047 1.07466797 -12.86996094 0.83683594 -11.99804688 0.59179688 C-4.31147157 -1.46076552 -4.31147157 -1.46076552 0 0 Z " fill="#79CC92" transform="translate(382,151)"/>
<path d="M0 0 C1.04750157 3.33152755 1.00335257 6.0975502 0.6875 9.5625 C0.60886719 10.51253906 0.53023437 11.46257812 0.44921875 12.44140625 C0 15 0 15 -2 18 C-2.27478373 20.22485741 -2.27478373 20.22485741 -2.1953125 22.66796875 C-2.18564453 24.00698242 -2.18564453 24.00698242 -2.17578125 25.37304688 C-2.15902344 26.30181641 -2.14226562 27.23058594 -2.125 28.1875 C-2.11597656 29.12787109 -2.10695312 30.06824219 -2.09765625 31.03710938 C-2.07409056 33.35832968 -2.04119116 35.67903644 -2 38 C-4.51941233 33.54045169 -4.38248777 29.64742034 -4.375 24.625 C-4.37628906 23.73973633 -4.37757813 22.85447266 -4.37890625 21.94238281 C-4.25430164 14.11211577 -2.73152435 7.36536029 0 0 Z " fill="#BFE3A6" transform="translate(204,186)"/>
<path d="M0 0 C0.66 0.33 1.32 0.66 2 1 C2 1.66 2 2.32 2 3 C-0.31 3 -2.62 3 -5 3 C-5 4.32 -5 5.64 -5 7 C-7.64 7 -10.28 7 -13 7 C-9.88775524 0.05730016 -7.38100432 -0.46863519 0 0 Z " fill="#72C241" transform="translate(227,312)"/>
<path d="M0 0 C0.75539063 0.10054688 1.51078125 0.20109375 2.2890625 0.3046875 C3.21971383 2.91051121 3.43823657 3.94666974 2.3515625 6.5546875 C2.0009375 7.1321875 1.6503125 7.7096875 1.2890625 8.3046875 C-1.0209375 7.9746875 -3.3309375 7.6446875 -5.7109375 7.3046875 C-6.3709375 8.9546875 -7.0309375 10.6046875 -7.7109375 12.3046875 C-8.0409375 11.6446875 -8.3709375 10.9846875 -8.7109375 10.3046875 C-7.671875 7.921875 -7.671875 7.921875 -6.0859375 5.1796875 C-5.57804687 4.26960938 -5.07015625 3.35953125 -4.546875 2.421875 C-2.7109375 0.3046875 -2.7109375 0.3046875 0 0 Z " fill="#26AF4D" transform="translate(356.7109375,111.6953125)"/>
<path d="M0 0 C0 1.98 0 3.96 0 6 C-2.95664519 7.4783226 -5.74229737 7.06032783 -9 7 C-9 5.02 -9 3.04 -9 1 C-6.04335481 -0.4783226 -3.25770263 -0.06032783 0 0 Z " fill="#6DC43E" transform="translate(405,264)"/>
<path d="M0 0 C0.66 0 1.32 0 2 0 C2.37402612 5.11169026 1.13463962 8.38917842 -1 13 C-1.37308631 14.32276056 -1.73046415 15.65232077 -2 17 C-2.66 17 -3.32 17 -4 17 C-4.33 18.32 -4.66 19.64 -5 21 C-6.76086956 16.86301729 -5.05757398 13.35267882 -3.625 9.375 C-3.39039063 8.694375 -3.15578125 8.01375 -2.9140625 7.3125 C-2.04506199 4.81412353 -1.18422621 2.36845242 0 0 Z " fill="#6DC385" transform="translate(253,215)"/>
<path d="M0 0 C2.375 1.5 2.375 1.5 4 3 C3.67 3.66 3.34 4.32 3 5 C2.01 4.34 1.02 3.68 0 3 C-0.99 3.66 -1.98 4.32 -3 5 C-6.1875 5.125 -6.1875 5.125 -9 5 C-9.33 7.64 -9.66 10.28 -10 13 C-10.66 12.34 -11.32 11.68 -12 11 C-11.92290713 6.83698517 -11.62578976 4.69730859 -8.8125 1.5625 C-5.49359602 -0.28133554 -3.74094169 -0.55716153 0 0 Z " fill="#B2DB93" transform="translate(156,207)"/>
<path d="M0 0 C0.66 0.33 1.32 0.66 2 1 C0.625 3 0.625 3 -1 5 C-1.66 5 -2.32 5 -3 5 C-3 5.99 -3 6.98 -3 8 C-3.66 8 -4.32 8 -5 8 C-5.26941406 8.58265625 -5.53882813 9.1653125 -5.81640625 9.765625 C-7.00587023 12.01108176 -8.30583491 13.80694844 -9.9375 15.75 C-10.69353516 16.67039063 -10.69353516 16.67039063 -11.46484375 17.609375 C-13 19 -13 19 -16 19 C-14.74012579 15.90758149 -13.03835836 13.92612078 -10.640625 11.63671875 C-6.92061774 7.92556865 -3.4952192 3.92165118 0 0 Z " fill="#7CBB51" transform="translate(236,140)"/>
<path d="M0 0 C0.33 0 0.66 0 1 0 C1.47792208 7.16883117 1.47792208 7.16883117 -0.4375 10.5 C-4.76084455 13.03073827 -9.48965539 12.57170519 -14.28125 11.48046875 C-14.8484375 11.32191406 -15.415625 11.16335938 -16 11 C-16.33 9.02 -16.66 7.04 -17 5 C-16.34 5 -15.68 5 -15 5 C-15 5.99 -15 6.98 -15 8 C-14.34 8 -13.68 8 -13 8 C-13 8.66 -13 9.32 -13 10 C-10.03 10 -7.06 10 -4 10 C-2.33094759 6.66189518 -1.1258614 3.53842155 0 0 Z " fill="#77B94B" transform="translate(312,316)"/>
<path d="M0 0 C0.66 0.33 1.32 0.66 2 1 C2.80355169 9.03551693 -0.10316461 15.63376145 -3 23 C-4.23434103 19.29697691 -4.44846137 15.85372739 -4 12 C-3.04906703 10.30485863 -2.04892238 8.63631892 -1 7 C-0.28076792 3.30476048 -0.28076792 3.30476048 0 0 Z " fill="#62C07B" transform="translate(392,172)"/>
<path d="M0 0 C0 3 0 3 -2.484375 5.8125 C-3.56528615 6.88276178 -4.65420672 7.94498043 -5.75 9 C-6.55824219 9.80050781 -6.55824219 9.80050781 -7.3828125 10.6171875 C-10.11937835 13.30035694 -12.84982245 15.79793414 -16 18 C-16.66 17.67 -17.32 17.34 -18 17 C-17.505 15.515 -17.505 15.515 -17 14 C-15.66666667 13.66666667 -14.33333333 13.33333333 -13 13 C-12.67 12.01 -12.34 11.02 -12 10 C-11.34 10 -10.68 10 -10 10 C-10 9.01 -10 8.02 -10 7 C-9.01 7 -8.02 7 -7 7 C-6.67 5.68 -6.34 4.36 -6 3 C-5.38125 2.87625 -4.7625 2.7525 -4.125 2.625 C-1.80879168 2.12802644 -1.80879168 2.12802644 0 0 Z " fill="#77CA91" transform="translate(358,249)"/>
<path d="M0 0 C3.96 0 7.92 0 12 0 C12 2.64 12 5.28 12 8 C11.67 8 11.34 8 11 8 C11 6.02 11 4.04 11 2 C9.8553125 2.5259375 9.8553125 2.5259375 8.6875 3.0625 C6 4 6 4 3 3 C3.33 3.99 3.66 4.98 4 6 C2.02 6.99 2.02 6.99 0 8 C0 5.36 0 2.72 0 0 Z " fill="#7BBB51" transform="translate(280,126)"/>
<path d="M0 0 C0 0.66 0 1.32 0 2 C7.92 3.98 7.92 3.98 16 6 C15.67 6.66 15.34 7.32 15 8 C12.39442509 7.71815415 9.79099602 7.42497289 7.1875 7.125 C6.44951172 7.04636719 5.71152344 6.96773438 4.95117188 6.88671875 C1.28493819 6.45539714 -0.87951745 6.0803217 -4 4 C-4 3.01 -4 2.02 -4 1 C-2 0 -2 0 0 0 Z " fill="#36AF55" transform="translate(267,272)"/>
<path d="M0 0 C0.33 0 0.66 0 1 0 C1.04898438 0.83144531 1.09796875 1.66289062 1.1484375 2.51953125 C1.22320312 3.60621094 1.29796875 4.69289062 1.375 5.8125 C1.44460937 6.89144531 1.51421875 7.97039062 1.5859375 9.08203125 C1.81195733 12.18626186 1.81195733 12.18626186 4 15 C4.37890625 17.0859375 4.37890625 17.0859375 4.5625 19.375 C4.86110023 22.64360612 5.27570909 25.79242599 6 29 C6.66 29 7.32 29 8 29 C8 29.66 8 30.32 8 31 C5 30 5 30 3.8125 27.75 C3.00061706 25.00208853 2.83739879 22.84552111 3 20 C2.34 20 1.68 20 1 20 C-0.05619003 15.71702469 -0.11702092 11.57014354 -0.0625 7.1875 C-0.05798828 6.49462891 -0.05347656 5.80175781 -0.04882812 5.08789062 C-0.03713156 3.39188932 -0.01919924 1.69593297 0 0 Z " fill="#7FBA53" transform="translate(201,204)"/>
<path d="M0 0 C0 4.49370053 -2.59226029 6.76747606 -5.3125 10.1875 C-5.81201172 10.84169922 -6.31152344 11.49589844 -6.82617188 12.16992188 C-7.31279297 12.78802734 -7.79941406 13.40613281 -8.30078125 14.04296875 C-8.74591064 14.61039795 -9.19104004 15.17782715 -9.6496582 15.76245117 C-11.79130949 17.72521204 -14.19072641 17 -17 17 C-15.37660195 15.29115995 -13.70680947 13.62553283 -12 12 C-11.34 12 -10.68 12 -10 12 C-9.75507813 11.42765625 -9.51015625 10.8553125 -9.2578125 10.265625 C-7.78889901 7.61975598 -6.04651756 5.85146861 -3.875 3.75 C-3.15054687 3.04359375 -2.42609375 2.3371875 -1.6796875 1.609375 C-1.12539063 1.07828125 -0.57109375 0.5471875 0 0 Z " fill="#95EEB1" transform="translate(356,186)"/>
<path d="M0 0 C0 1.32 0 2.64 0 4 C-3.98082224 4.84441684 -7.97252554 5.42464651 -12 6 C-14.76864953 6.36858988 -14.76864953 6.36858988 -17 7 C-17.33 7.66 -17.66 8.32 -18 9 C-18.99 9.495 -18.99 9.495 -20 10 C-20.66 9.34 -21.32 8.68 -22 8 C-19.39653203 6.85255669 -16.79226795 5.70698532 -14.1875 4.5625 C-13.44951172 4.23701172 -12.71152344 3.91152344 -11.95117188 3.57617188 C-11.23896484 3.26357422 -10.52675781 2.95097656 -9.79296875 2.62890625 C-9.1383667 2.34088135 -8.48376465 2.05285645 -7.80932617 1.75610352 C-5.04840641 0.60233634 -3.01773402 0 0 0 Z " fill="#77C991" transform="translate(312,167)"/>
<path d="M0 0 C0.33 0 0.66 0 1 0 C1.48 7.2 1.48 7.2 -0.5 10.5 C-4.22645843 12.73587506 -6.67911757 12.41151261 -11 12 C-11.99 11.34 -12.98 10.68 -14 10 C-13.67 9.34 -13.34 8.68 -13 8 C-12.236875 8.20625 -11.47375 8.4125 -10.6875 8.625 C-7.78114056 9.33391203 -7.78114056 9.33391203 -5 7 C-3.34450469 6.61500109 -1.6777567 6.27206865 0 6 C0 4.02 0 2.04 0 0 Z " fill="#ADD98F" transform="translate(160,212)"/>
<path d="M0 0 C0.99 0.66 1.98 1.32 3 2 C3.64188522 6.89437477 3.75572747 8.90076005 0.9375 13 C-2.71329152 15.48564529 -4.66546502 15.64215333 -9 15 C-9.99 14.01 -10.98 13.02 -12 12 C-8.7 12.33 -5.4 12.66 -2 13 C-2 11.68 -2 10.36 -2 9 C-1.01 8.67 -0.02 8.34 1 8 C1.08226668 4.95613276 0.97608217 2.92824652 0 0 Z " fill="#B0D896" transform="translate(356,283)"/>
<path d="M0 0 C1.9375 0.8125 1.9375 0.8125 4 2 C4.33 2.99 4.66 3.98 5 5 C4.01 6.485 4.01 6.485 3 8 C1.35 7.67 -0.3 7.34 -2 7 C-2.6875 5.1875 -2.6875 5.1875 -3 3 C-1.5625 1.25 -1.5625 1.25 0 0 Z " fill="#A8D18E" transform="translate(454,261)"/>
<path d="M0 0 C1.32 0 2.64 0 4 0 C2.49087042 4.98012761 -0.55661849 8.24259942 -4 12 C-4.185625 11.1028125 -4.185625 11.1028125 -4.375 10.1875 C-4.95475985 7.73768652 -4.95475985 7.73768652 -7 5 C-5 5 -3 5 -1 5 C-0.67 3.35 -0.34 1.7 0 0 Z " fill="#5FC17E" transform="translate(364,237)"/>
<path d="M0 0 C-3.82774727 4.18659858 -7.94607874 7.37820862 -13 10 C-13.66 10 -14.32 10 -15 10 C-14.67 8.68 -14.34 7.36 -14 6 C-12.35 5.67 -10.7 5.34 -9 5 C-9 4.01 -9 3.02 -9 2 C-5.86501708 0.14223235 -3.62528568 -0.20140476 0 0 Z " fill="#74C88F" transform="translate(303,233)"/>
<path d="M0 0 C-1.37848251 3.32956545 -2.70808523 4.7639576 -5.8125 6.5625 C-6.5240625 6.98015625 -7.235625 7.3978125 -7.96875 7.828125 C-8.6390625 8.21484375 -9.309375 8.6015625 -10 9 C-10.928125 9.598125 -11.85625 10.19625 -12.8125 10.8125 C-15 12 -15 12 -18 12 C-4.99711816 0 -4.99711816 0 0 0 Z " fill="#71C387" transform="translate(290,176)"/>
<path d="M0 0 C1.32 0.33 2.64 0.66 4 1 C2.04653795 2.67268922 0.08770186 4.33821581 -1.875 6 C-2.70837891 6.71542969 -2.70837891 6.71542969 -3.55859375 7.4453125 C-7.7734375 11 -7.7734375 11 -10 11 C-9.67 9.35 -9.34 7.7 -9 6 C-7.35 5.67 -5.7 5.34 -4 5 C-4 4.01 -4 3.02 -4 2 C-2.68 1.67 -1.36 1.34 0 1 C0 0.67 0 0.34 0 0 Z " fill="#60BA77" transform="translate(324,214)"/>
<path d="M0 0 C-0.33 2.97 -0.66 5.94 -1 9 C-1.33 9 -1.66 9 -2 9 C-2 7.02 -2 5.04 -2 3 C-5.35860423 3.94040918 -8.65687363 4.87589046 -11.9375 6.0625 C-15.6461565 7.19780301 -19.14433218 7.60113781 -23 8 C-19.33500549 5.55667033 -15.63735885 4.31858597 -11.5 2.875 C-10.72785156 2.59785156 -9.95570313 2.32070312 -9.16015625 2.03515625 C-8.41636719 1.77347656 -7.67257812 1.51179687 -6.90625 1.2421875 C-6.22884766 1.0035498 -5.55144531 0.76491211 -4.85351562 0.51904297 C-3 0 -3 0 0 0 Z " fill="#B2E2C0" transform="translate(403,142)"/>
<path d="M0 0 C0.33 0.66 0.66 1.32 1 2 C0.67 2.99 0.34 3.98 0 5 C-0.09419337 6.78967404 -0.12990998 8.58285563 -0.125 10.375 C-0.12757813 11.31085938 -0.13015625 12.24671875 -0.1328125 13.2109375 C-0.0760227 15.99519087 -0.0760227 15.99519087 0.56640625 18.64453125 C1.15745599 21.85536904 0.18074784 24.01340253 -1 27 C-1.99 27 -2.98 27 -4 27 C-3.48759766 25.95585938 -3.48759766 25.95585938 -2.96484375 24.890625 C-1.82617581 21.47923117 -2.08701214 19.29688243 -2.5625 15.75 C-3.16130028 9.76880176 -2.48953184 5.44321368 0 0 Z " fill="#A4DDB3" transform="translate(359,85)"/>
<path d="M0 0 C0.33 0.66 0.66 1.32 1 2 C-0.2375 1.9175 -1.475 1.835 -2.75 1.75 C-5.76252076 1.7713654 -6.84348817 1.9060929 -9.5 3.5 C-11.68405234 7.14008723 -11.28023018 9.79654733 -11 14 C-11.66 13.67 -12.32 13.34 -13 13 C-14.10888594 9.3321465 -14.13740184 7.39693866 -12.875 3.75 C-9.41522866 -1.3243313 -5.726912 -1.56188509 0 0 Z " fill="#BFE0A5" transform="translate(355,281)"/>
<path d="M0 0 C-2.08770553 1.11841368 -3.85408801 1.9708176 -6.1875 2.4375 C-7.0846875 2.7159375 -7.0846875 2.7159375 -8 3 C-8.33 3.99 -8.66 4.98 -9 6 C-11.64 5.67 -14.28 5.34 -17 5 C-17.33 5.66 -17.66 6.32 -18 7 C-20.97 6.505 -20.97 6.505 -24 6 C-20.38336428 3.95701494 -16.55059554 2.92757654 -12.5625 1.875 C-11.90701172 1.69324219 -11.25152344 1.51148438 -10.57617188 1.32421875 C-6.9700588 0.36210633 -3.73298129 -0.21577927 0 0 Z " fill="#88D3A0" transform="translate(336,161)"/>
<path d="M0 0 C0.99 0.33 1.98 0.66 3 1 C2.67 2.98 2.34 4.96 2 7 C1.67 6.01 1.34 5.02 1 4 C0.33613281 4.13277344 -0.32773437 4.26554688 -1.01171875 4.40234375 C-5.34114583 5.26822917 -9.67057292 6.13411458 -14 7 C-14.33 6.34 -14.66 5.68 -15 5 C-14.12988281 4.83564453 -14.12988281 4.83564453 -13.2421875 4.66796875 C-9.37515119 3.88307524 -6.18186761 3.09093381 -2.625 1.3125 C-1.75875 0.879375 -0.8925 0.44625 0 0 Z " fill="#35A858" transform="translate(399,144)"/>
<path d="M0 0 C1.32 0 2.64 0 4 0 C2.61166236 4.41743795 0.60286648 7.0833938 -3 10 C-5.1640625 9.6328125 -5.1640625 9.6328125 -7 9 C-5.93249206 7.48869662 -4.84539718 5.99121297 -3.75 4.5 C-3.14671875 3.6646875 -2.5434375 2.829375 -1.921875 1.96875 C-0.97054688 0.99421875 -0.97054688 0.99421875 0 0 Z " fill="#2EAC51" transform="translate(355,189)"/>
<path d="M0 0 C-0.125 1.875 -0.125 1.875 -1 4 C-4.59650092 5.59844485 -7.03397243 6 -11 6 C-8.08779409 0.5916176 -6.04491751 -0.16337615 0 0 Z " fill="#6CC63B" transform="translate(308,312)"/>
<path d="M0 0 C0.66 0.33 1.32 0.66 2 1 C1.67 1.33 1.34 1.66 1 2 C0.63239269 4.32817964 0.29758419 6.6618385 0 9 C0.639375 9.12375 1.27875 9.2475 1.9375 9.375 C2.618125 9.58125 3.29875 9.7875 4 10 C4.33 10.66 4.66 11.32 5 12 C6.98 12 8.96 12 11 12 C10.67 12.66 10.34 13.32 10 14 C5.72824881 14.41879914 3.62401085 14.41600723 0 12 C-2.11013744 8.83479383 -2.27116171 8.30267594 -1.875 4.75 C-1 1 -1 1 0 0 Z " fill="#B6DC9B" transform="translate(368,270)"/>
<path d="M0 0 C0.66 0 1.32 0 2 0 C2 4.95 2 9.9 2 15 C-2 11 -2 11 -2.375 7.5 C-2.04142937 4.38667416 -1.66128628 2.59575981 0 0 Z " fill="#8EC26C" transform="translate(156,261)"/>
<path d="M0 0 C-0.58007812 0.21011719 -1.16015625 0.42023438 -1.7578125 0.63671875 C-8.9552245 3.83160955 -11.0789047 8.1899543 -14.00390625 15.33203125 C-14.33261719 16.21246094 -14.66132813 17.09289062 -15 18 C-16 15 -16 15 -15.2578125 13.16796875 C-14.88398438 12.51441406 -14.51015625 11.86085938 -14.125 11.1875 C-12.30354469 7.78954372 -11.38770532 4.87705319 -11 1 C-9.5437328 0.63743142 -8.08488815 0.28520207 -6.625 -0.0625 C-5.81289063 -0.25972656 -5.00078125 -0.45695312 -4.1640625 -0.66015625 C-2 -1 -2 -1 0 0 Z " fill="#9FE1B3" transform="translate(389,113)"/>
<path d="M0 0 C0.33 0.99 0.66 1.98 1 3 C-0.04800781 3.48919922 -0.04800781 3.48919922 -1.1171875 3.98828125 C-2.02726562 4.42527344 -2.93734375 4.86226562 -3.875 5.3125 C-4.77992188 5.74175781 -5.68484375 6.17101562 -6.6171875 6.61328125 C-9.26449476 7.9199388 -9.26449476 7.9199388 -11 11 C-11.66 10.67 -12.32 10.34 -13 10 C-13 7 -13 7 -12 5 C-10.35767228 4.27544365 -8.68375165 3.62225605 -7 3 C-5.7264543 2.46474166 -4.45565616 1.9229052 -3.1875 1.375 C-2.135625 0.92125 -1.08375 0.4675 0 0 Z " fill="#2DAA53" transform="translate(302,171)"/>
<path d="M0 0 C1.07310858 3.27185553 0.89263102 5.42947592 0.0625 8.75 C-0.22947266 9.94882813 -0.22947266 9.94882813 -0.52734375 11.171875 C-0.68332031 11.77515625 -0.83929688 12.3784375 -1 13 C-1.66 13 -2.32 13 -3 13 C-3.33 9.04 -3.66 5.08 -4 1 C-2.68 1.33 -1.36 1.66 0 2 C0 1.34 0 0.68 0 0 Z " fill="#B1D296" transform="translate(238,243)"/>
<path d="M0 0 C1.6415049 3.2830098 0.51888624 6.42545033 0 10 C-0.61875 10.061875 -1.2375 10.12375 -1.875 10.1875 C-4.27761141 10.828919 -4.27761141 10.828919 -5.25 13.5625 C-5.4975 14.366875 -5.745 15.17125 -6 16 C-7 13 -7 13 -5.56640625 9.86328125 C-4.90864027 8.6739872 -4.24022185 7.49053629 -3.5625 6.3125 C-3.22412109 5.70599609 -2.88574219 5.09949219 -2.53710938 4.47460938 C-1.70042085 2.9779975 -0.85137169 1.48830811 0 0 Z " fill="#AED88F" transform="translate(212,170)"/>
<path d="M0 0 C1.66611905 -0.042721 3.33382885 -0.04063832 5 0 C6 1 6 1 6.0625 4.0625 C6.041875 5.031875 6.02125 6.00125 6 7 C3.69 6.34 1.38 5.68 -1 5 C-0.67 3.35 -0.34 1.7 0 0 Z " fill="#79B94E" transform="translate(167,160)"/>
<path d="M0 0 C0.66 0.33 1.32 0.66 2 1 C0 4 0 4 -3 6 C-3 6.66 -3 7.32 -3 8 C-3.99 7.67 -4.98 7.34 -6 7 C-6.33 7.99 -6.66 8.98 -7 10 C-9.31 10.33 -11.62 10.66 -14 11 C-11.14325205 7.98306057 -8.17651069 5.59445469 -4.75 3.25 C-3.85796875 2.63640625 -2.9659375 2.0228125 -2.046875 1.390625 C-1.03367187 0.70226562 -1.03367187 0.70226562 0 0 Z " fill="#87D49F" transform="translate(289,253)"/>
<path d="M0 0 C0.66 1.32 1.32 2.64 2 4 C1.34 4 0.68 4 0 4 C-0.598125 4.763125 -1.19625 5.52625 -1.8125 6.3125 C-4.05059551 9.0621602 -5.83422322 10.45769849 -9 12 C-9.99 12 -10.98 12 -12 12 C-8.04 8.04 -4.08 4.08 0 0 Z " fill="#65C182" transform="translate(331,217)"/>
<path d="M0 0 C0 3 0 3 -2 5.1875 C-6.10610218 7.66827007 -8.25000522 7.53628973 -13 7 C-13.99 6.01 -14.98 5.02 -16 4 C-12.04 4.33 -8.08 4.66 -4 5 C-4 3.68 -4 2.36 -4 1 C-2.68 0.67 -1.36 0.34 0 0 Z " fill="#B3DB9A" transform="translate(208,314)"/>
<path d="M0 0 C1.4540625 0.0309375 1.4540625 0.0309375 2.9375 0.0625 C-0.86497803 3.288845 -4.61320439 5.83785219 -9.0625 8.0625 C-10.0525 7.7325 -11.0425 7.4025 -12.0625 7.0625 C-9.73343383 3.56890074 -7.79774038 2.81091039 -4.0625 1.0625 C-3.0625 0.0625 -3.0625 0.0625 0 0 Z " fill="#77C991" transform="translate(336.0625,267.9375)"/>
<path d="M0 0 C0.66 0.33 1.32 0.66 2 1 C2 1.66 2 2.32 2 3 C-0.64 3.66 -3.28 4.32 -6 5 C-6.33 6.65 -6.66 8.3 -7 10 C-7.33 10 -7.66 10 -8 10 C-8 7.03 -8 4.06 -8 1 C-5.26094655 -0.36952673 -3.02912668 -0.12621361 0 0 Z " fill="#9FCC80" transform="translate(403,261)"/>
<path d="M0 0 C0.33 0.66 0.66 1.32 1 2 C2.98 2 4.96 2 7 2 C7 2.33 7 2.66 7 3 C-4.88 5.475 -4.88 5.475 -17 8 C-17 6.68 -17 5.36 -17 4 C-16.67 4.66 -16.34 5.32 -16 6 C-13.51803547 5.38473563 -11.0398437 4.75837346 -8.5625 4.125 C-7.85544922 3.95097656 -7.14839844 3.77695313 -6.41992188 3.59765625 C-4.59631043 3.12648392 -2.79556771 2.56876943 -1 2 C-0.67 1.34 -0.34 0.68 0 0 Z " fill="#A9E3BA" transform="translate(347,149)"/>
<path d="M0 0 C2.4375 1.3125 2.4375 1.3125 5 4 C5.74756245 7.65884437 5.92928996 11.27165244 6 15 C4.78483364 13.17725047 3.60668208 11.3280819 2.5 9.4375 C1.0902355 6.93582181 1.0902355 6.93582181 -1 5 C-0.625 2.375 -0.625 2.375 0 0 Z " fill="#53B771" transform="translate(390,80)"/>
<path d="M0 0 C0.33 0 0.66 0 1 0 C1 4.62 1 9.24 1 14 C2.32 14.66 3.64 15.32 5 16 C3.02 16.66 1.04 17.32 -1 18 C-1.33 17.67 -1.66 17.34 -2 17 C-1.93522667 15.08035406 -1.7976334 13.16296467 -1.625 11.25 C-1.53476563 10.20328125 -1.44453125 9.1565625 -1.3515625 8.078125 C-1.03847028 5.33682871 -0.5886275 2.69371907 0 0 Z " fill="#9EDBAF" transform="translate(243,249)"/>
<path d="M0 0 C0.99 0.33 1.98 0.66 3 1 C-0.50897269 5.18423892 -4.08060535 9.19588166 -8 13 C-7.67 11.35 -7.34 9.7 -7 8 C-6.34 8 -5.68 8 -5 8 C-4.896875 7.360625 -4.79375 6.72125 -4.6875 6.0625 C-4.460625 5.381875 -4.23375 4.70125 -4 4 C-3.01 3.67 -2.02 3.34 -1 3 C-0.67 2.01 -0.34 1.02 0 0 Z " fill="#30AB53" transform="translate(353,185)"/>
<path d="M0 0 C3.47931145 -0.31630104 5.42283191 -0.35518036 8.4375 1.5 C10.78829768 5.26127628 9.85594505 7.72027476 9 12 C8.67 12 8.34 12 8 12 C8 9.36 8 6.72 8 4 C3.545 3.01 3.545 3.01 -1 2 C-0.67 1.34 -0.34 0.68 0 0 Z " fill="#7BB74E" transform="translate(348,282)"/>
<path d="M0 0 C0.33 0.66 0.66 1.32 1 2 C0.0625 4.625 0.0625 4.625 -1 7 C-0.113125 6.649375 0.77375 6.29875 1.6875 5.9375 C5.06203126 4.98244398 6.69686152 5.02848868 10 6 C7.03821227 7.67110042 4.62928808 8.32682752 1.25 8.625 C0.45078125 8.69976562 -0.3484375 8.77453125 -1.171875 8.8515625 C-2.07679688 8.92503906 -2.07679688 8.92503906 -3 9 C-2.5020163 5.26512223 -2.12508244 3.18762365 0 0 Z " fill="#59B574" transform="translate(334,146)"/>
<path d="M0 0 C0 0.99 0 1.98 0 3 C-2.87874407 5.35533606 -4.8557937 5.98229045 -8.5625 6.4375 C-12.50074253 5.93626913 -13.60114545 5.07053382 -16 2 C-15.01 2.33 -14.02 2.66 -13 3 C-6.67430334 3.42666753 -6.67430334 3.42666753 -1 1 C-0.67 0.67 -0.34 0.34 0 0 Z " fill="#B8DC9B" transform="translate(187,296)"/>
<path d="M0 0 C0.33 0 0.66 0 1 0 C0.67 3.96 0.34 7.92 0 12 C-0.66 12 -1.32 12 -2 12 C-2 14.64 -2 17.28 -2 20 C-2.33 20 -2.66 20 -3 20 C-3 14.72 -3 9.44 -3 4 C-2.34 4 -1.68 4 -1 4 C-0.67 2.68 -0.34 1.36 0 0 Z " fill="#9AD078" transform="translate(229,204)"/>
<path d="M0 0 C0 3.66184524 -0.919642 5.02806 -3 8 C-5.1875 9.8125 -5.1875 9.8125 -7 11 C-7.20086443 7.28400809 -7.1519437 6.22791555 -5 3 C-4.34 3 -3.68 3 -3 3 C-3 2.34 -3 1.68 -3 1 C-2.01 0.67 -1.02 0.34 0 0 Z " fill="#94C872" transform="translate(256,197)"/>
<path d="M0 0 C2.00720923 0.28674418 4.0085944 0.61866701 6 1 C6 1.99 6 2.98 6 4 C5.34 4.66 4.68 5.32 4 6 C2.68 6 1.36 6 0 6 C-0.38218767 4.34385343 -0.71395102 2.67542976 -1 1 C-0.67 0.67 -0.34 0.34 0 0 Z " fill="#70C43A" transform="translate(326,300)"/>
<path d="M0 0 C0.33 1.98 0.66 3.96 1 6 C-0.65614657 6.38218767 -2.32457024 6.71395102 -4 7 C-5 6 -5 6 -5.0625 3.4375 C-5.041875 2.633125 -5.02125 1.82875 -5 1 C-3 0 -3 0 0 0 Z " fill="#75BB47" transform="translate(429,260)"/>
<path d="M0 0 C0.66 0.33 1.32 0.66 2 1 C1.505 1.7425 1.505 1.7425 1 2.5 C-0.45420788 6.1355197 -0.18926011 9.08862439 0 13 C0.33 13.66 0.66 14.32 1 15 C0.01 14.67 -0.98 14.34 -2 14 C-3.58873246 10.82253509 -3.41026221 7.45987798 -3 4 C-1.5 1.5 -1.5 1.5 0 0 Z " fill="#B8DC9A" transform="translate(149,235)"/>
<path d="M0 0 C2 2 2 2 2.4375 4.8125 C1.86588806 8.97710129 0.13624593 10.33419096 -3 13 C-3.6875 11.1875 -3.6875 11.1875 -4 9 C-3 8 -2 7 -1 6 C-0.2730774 2.89160979 -0.2730774 2.89160979 0 0 Z " fill="#ABD58C" transform="translate(336,301)"/>
<path d="M0 0 C0.375 2.1875 0.375 2.1875 0 5 C-1.83961648 6.99022836 -3.79186148 8.38989899 -6 10 C-6.3125 7.8125 -6.3125 7.8125 -6 5 C-1.66666667 0 -1.66666667 0 0 0 Z " fill="#51BB70" transform="translate(339,200)"/>
<path d="M0 0 C1.31625194 2.63250388 0.74813658 3.80179056 0.0625 6.625 C-0.13214844 7.44226563 -0.32679688 8.25953125 -0.52734375 9.1015625 C-0.76130859 10.04128906 -0.76130859 10.04128906 -1 11 C-2.65 11.33 -4.3 11.66 -6 12 C-4.68139111 7.38486888 -2.78644563 3.90102388 0 0 Z " fill="#86D19C" transform="translate(341,134)"/>
<path d="M0 0 C0.66 0 1.32 0 2 0 C2 3.96 2 7.92 2 12 C-1 9 -1 9 -1.25 5.4375 C-1 2 -1 2 0 0 Z " fill="#A7D387" transform="translate(169,286)"/>
<path d="M0 0 C-3.41016497 2.86453858 -6.90694544 4.34703566 -11 6 C-11.33 5.01 -11.66 4.02 -12 3 C-10.5682384 2.30062798 -9.12932968 1.61587282 -7.6875 0.9375 C-6.48673828 0.36322266 -6.48673828 0.36322266 -5.26171875 -0.22265625 C-3 -1 -3 -1 0 0 Z " fill="#31A854" transform="translate(260,257)"/>
<path d="M0 0 C2 3 2 3 2 5 C2.66 5 3.32 5 4 5 C4.33 6.98 4.66 8.96 5 11 C4.01 11 3.02 11 2 11 C-0.67927341 6.98108988 -0.15601248 4.75838077 0 0 Z " fill="#94C970" transform="translate(252,144)"/>
<path d="M0 0 C0.33 0.99 0.66 1.98 1 3 C1.66 3.33 2.32 3.66 3 4 C1.68 5.32 0.36 6.64 -1 8 C-1.66 7.67 -2.32 7.34 -3 7 C-3.66 8.65 -4.32 10.3 -5 12 C-5.33 11.34 -5.66 10.68 -6 10 C-4.78515625 7.6171875 -4.78515625 7.6171875 -3.0625 4.875 C-2.21365234 3.50988281 -2.21365234 3.50988281 -1.34765625 2.1171875 C-0.90292969 1.41851562 -0.45820313 0.71984375 0 0 Z " fill="#83D29A" transform="translate(354,112)"/>
<path d="M0 0 C0.66 0.99 1.32 1.98 2 3 C1.02433888 4.16959987 0.044375 5.33561177 -0.9375 6.5 C-1.48277344 7.1496875 -2.02804687 7.799375 -2.58984375 8.46875 C-3.05519531 8.9740625 -3.52054687 9.479375 -4 10 C-4.33 10 -4.66 10 -5 10 C-5.3125 7.8125 -5.3125 7.8125 -5 5 C-2.5 2.1875 -2.5 2.1875 0 0 Z " fill="#95CF79" transform="translate(264,184)"/>
<path d="M0 0 C0.66 0.33 1.32 0.66 2 1 C0.515 2.485 0.515 2.485 -1 4 C-0.34 4.66 0.32 5.32 1 6 C-0.98 6.99 -0.98 6.99 -3 8 C-3 9.98 -3 11.96 -3 14 C-3.33 14 -3.66 14 -4 14 C-4.63019694 5.96498906 -4.63019694 5.96498906 -2 1.9375 C-1.34 1.298125 -0.68 0.65875 0 0 Z " fill="#B3DD98" transform="translate(271,317)"/>
<path d="M0 0 C0.66 0.66 1.32 1.32 2 2 C0.948125 1.938125 -0.10375 1.87625 -1.1875 1.8125 C-5.18387024 2.0090428 -6.86899906 2.60570516 -10 5 C-10.33 5.66 -10.66 6.32 -11 7 C-11.66 7 -12.32 7 -13 7 C-9.91052069 0.10808462 -7.36759634 -0.58472987 0 0 Z " fill="#80B75D" transform="translate(227,312)"/>
<path d="M0 0 C0.66 0 1.32 0 2 0 C2.19294408 4.82360189 1.75747614 8.49646738 0 13 C-0.33 13 -0.66 13 -1 13 C-1.02686553 11.02090602 -1.04633375 9.04171029 -1.0625 7.0625 C-1.07410156 5.96035156 -1.08570313 4.85820312 -1.09765625 3.72265625 C-1 1 -1 1 0 0 Z " fill="#94CE75" transform="translate(243,217)"/>
<path d="M0 0 C2.475 0.495 2.475 0.495 5 1 C5 1.66 5 2.32 5 3 C7.97 3 10.94 3 14 3 C10.83050223 5.11299851 10.49404825 5.25293119 7 4.75 C6.319375 4.66234375 5.63875 4.5746875 4.9375 4.484375 C3 4 3 4 0 2 C0 1.34 0 0.68 0 0 Z " fill="#BADFA2" transform="translate(242,334)"/>
<path d="M0 0 C1.89453748 2.84180622 3.00192814 5.31564815 4.1875 8.5 C4.55230469 9.4590625 4.91710937 10.418125 5.29296875 11.40625 C6 14 6 14 5 17 C0.9117914 12.9117914 0.69865592 5.58924735 0 0 Z " fill="#C1E7AE" transform="translate(257,155)"/>
<path d="M0 0 C0.33 0.66 0.66 1.32 1 2 C0.06421005 4.35981813 -0.93347808 6.69631264 -2 9 C-2.66 9 -3.32 9 -4 9 C-4 9.66 -4 10.32 -4 11 C-4.66 11 -5.32 11 -6 11 C-4.54955729 6.89041233 -2.48889248 3.56741255 0 0 Z " fill="#AFDA91" transform="translate(219,159)"/>
<path d="M0 0 C-1.017017 3.05105101 -1.82646048 3.82646048 -4 6 C-4 6.66 -4 7.32 -4 8 C-4.99 7.67 -5.98 7.34 -7 7 C-6.67 4.69 -6.34 2.38 -6 0 C-3 -1 -3 -1 0 0 Z " fill="#6CC139" transform="translate(156,212)"/>
<path d="M0 0 C1.3805087 3.76668598 0.59568159 6.44789173 -0.4375 10.25 C-0.72496094 11.32765625 -1.01242188 12.4053125 -1.30859375 13.515625 C-1.53675781 14.33546875 -1.76492187 15.1553125 -2 16 C-4 12.25 -4 12.25 -4 10 C-3.34 10 -2.68 10 -2 10 C-2.20625 9.21625 -2.4125 8.4325 -2.625 7.625 C-2.74875 6.75875 -2.8725 5.8925 -3 5 C-2.34 4.34 -1.68 3.68 -1 3 C-0.67 2.01 -0.34 1.02 0 0 Z " fill="#ACDA8E" transform="translate(233,187)"/>
<path d="M0 0 C0.66 0.33 1.32 0.66 2 1 C1.34 2.65 0.68 4.3 0 6 C-1.65 5.67 -3.3 5.34 -5 5 C-5.66 6.32 -6.32 7.64 -7 9 C-6.8125 6.6875 -6.8125 6.6875 -6 4 C-3.5 2.25 -3.5 2.25 -1 1 C-0.67 0.67 -0.34 0.34 0 0 Z " fill="#3AAD58" transform="translate(277,185)"/>
<path d="M0 0 C0.99 0 1.98 0 3 0 C2.67 2.31 2.34 4.62 2 7 C3.32 7.33 4.64 7.66 6 8 C4.125 8.625 4.125 8.625 2 9 C0 7 0 7 -0.125 3.375 C-0.08375 2.26125 -0.0425 1.1475 0 0 Z " fill="#7BB950" transform="translate(152,185)"/>
<path d="M0 0 C1.60379341 -0.05416188 3.20811406 -0.09286638 4.8125 -0.125 C5.70582031 -0.14820313 6.59914063 -0.17140625 7.51953125 -0.1953125 C10 0 10 0 13 2 C8.15507803 3.51403812 4.7408989 2.36602172 0 1 C0 0.67 0 0.34 0 0 Z " fill="#2EA14F" transform="translate(270,277)"/>
<path d="M0 0 C0.33 0.99 0.66 1.98 1 3 C-0.89488952 4.89488952 -3.57139146 4.18019112 -6.08984375 4.23046875 C-8 4 -8 4 -10 2 C-6.7 1.34 -3.4 0.68 0 0 Z " fill="#79BA48" transform="translate(168,273)"/>
<path d="M0 0 C3.2645028 3.2645028 3.93236055 7.41047299 4.125 11.9375 C4.08375 12.618125 4.0425 13.29875 4 14 C2 10.25 2 10.25 2 8 C1.34 8 0.68 8 0 8 C0 5.36 0 2.72 0 0 Z " fill="#ACD890" transform="translate(263,172)"/>
<path d="M0 0 C0.66 0 1.32 0 2 0 C2 0.99 2 1.98 2 3 C-1.01324195 4.50662097 -3.68286377 4.17770373 -7 4 C-7.66 3.34 -8.32 2.68 -9 2 C-6.94921875 1.77213542 -4.8984375 1.54427083 -2.84765625 1.31640625 C-0.98859771 1.18113386 -0.98859771 1.18113386 0 0 Z " fill="#34AA56" transform="translate(363,155)"/>
<path d="M0 0 C-0.75 2.4375 -0.75 2.4375 -2 5 C-4.49476051 6.04618989 -6.26856911 6 -9 6 C-7.8803014 4.99406757 -6.7540588 3.9954151 -5.625 3 C-4.68527344 2.1646875 -4.68527344 2.1646875 -3.7265625 1.3125 C-2 0 -2 0 0 0 Z " fill="#BBF1D1" transform="translate(348,197)"/>
<path d="M0 0 C0.33 0 0.66 0 1 0 C1.05422947 1.4370809 1.09289723 2.87475462 1.125 4.3125 C1.14820313 5.11300781 1.17140625 5.91351563 1.1953125 6.73828125 C1 9 1 9 -1 12 C-2.42857143 3.42857143 -2.42857143 3.42857143 0 0 Z " fill="#60BB7B" transform="translate(395,165)"/>
<path d="M0 0 C-0.33 0.66 -0.66 1.32 -1 2 C-3.88211302 2.96070434 -5.69850044 3.10581883 -8.6875 3.0625 C-9.89986328 3.04896484 -9.89986328 3.04896484 -11.13671875 3.03515625 C-12.05904297 3.01775391 -12.05904297 3.01775391 -13 3 C-8.49192825 0.69441653 -5.09714099 -0.14158725 0 0 Z " fill="#9CDCAE" transform="translate(354,157)"/>
<path d="M0 0 C0.33 0 0.66 0 1 0 C1 2.31 1 4.62 1 7 C2.2065625 7.185625 2.2065625 7.185625 3.4375 7.375 C4.7059375 7.684375 4.7059375 7.684375 6 8 C6.33 8.66 6.66 9.32 7 10 C4.625 10.125 4.625 10.125 2 10 C0 8 0 8 -0.1953125 6.0546875 C-0.13020833 4.03645833 -0.06510417 2.01822917 0 0 Z " fill="#7CB95A" transform="translate(146,212)"/>
<path d="M0 0 C0.66 0 1.32 0 2 0 C1.4359146 3.94859783 0.2568294 6.70879046 -2 10 C-2.33 10 -2.66 10 -3 10 C-3 8.35 -3 6.7 -3 5 C-2.01 4.67 -1.02 4.34 0 4 C0 2.68 0 1.36 0 0 Z " fill="#38A659" transform="translate(377,214)"/>
<path d="M0 0 C1.32 0.33 2.64 0.66 4 1 C1.36 2.98 -1.28 4.96 -4 7 C-4 5.35 -4 3.7 -4 2 C-2.68 1.67 -1.36 1.34 0 1 C0 0.67 0 0.34 0 0 Z " fill="#77CB8D" transform="translate(324,214)"/>
<path d="M0 0 C2.97 0.495 2.97 0.495 6 1 C6 1.66 6 2.32 6 3 C6.66 3.33 7.32 3.66 8 4 C5 5 5 5 2.3125 3.6875 C1.549375 3.130625 0.78625 2.57375 0 2 C0 1.34 0 0.68 0 0 Z " fill="#8DC667" transform="translate(268,331)"/>
<path d="M0 0 C1.32 0 2.64 0 4 0 C4 1.98 4 3.96 4 6 C3.01 6.33 2.02 6.66 1 7 C0.67 4.69 0.34 2.38 0 0 Z " fill="#77BC45" transform="translate(401,264)"/>
<path d="M0 0 C0.33 0.99 0.66 1.98 1 3 C-2.75 6 -2.75 6 -5 6 C-5.33 6.99 -5.66 7.98 -6 9 C-6.33 8.01 -6.66 7.02 -7 6 C-4.69 4.02 -2.38 2.04 0 0 Z " fill="#2FA551" transform="translate(315,234)"/>
<path d="M0 0 C0.33 0.66 0.66 1.32 1 2 C0.06553465 4.03144641 -0.93224776 6.03533587 -2 8 C-2.99 8 -3.98 8 -5 8 C-3.62845496 5.04590299 -2.01136276 2.55991624 0 0 Z " fill="#AFD992" transform="translate(225,151)"/>
<path d="M0 0 C0.33 0 0.66 0 1 0 C1.66 3.63 2.32 7.26 3 11 C2.01 11 1.02 11 0 11 C0 7.37 0 3.74 0 0 Z " fill="#77B846" transform="translate(235,234)"/>
<path d="M0 0 C0.33 0.66 0.66 1.32 1 2 C1.99 2 2.98 2 4 2 C4.33 3.65 4.66 5.3 5 7 C4.01 7 3.02 7 2 7 C2 6.01 2 5.02 2 4 C1.01 4 0.02 4 -1 4 C-0.67 2.68 -0.34 1.36 0 0 Z " fill="#79BE50" transform="translate(253,153)"/>
<path d="M0 0 C0.66 0 1.32 0 2 0 C2 0.99 2 1.98 2 3 C2.66 3 3.32 3 4 3 C4 3.66 4 4.32 4 5 C4.99 5.33 5.98 5.66 7 6 C4.50907189 7.24546405 3.58919267 6.7767578 1 6 C0.67 4.02 0.34 2.04 0 0 Z " fill="#8ABF6A" transform="translate(295,321)"/>
<path d="M0 0 C0.66 0.33 1.32 0.66 2 1 C2 1.66 2 2.32 2 3 C0.35 2.67 -1.3 2.34 -3 2 C-2.01 1.34 -1.02 0.68 0 0 Z M-3 3 C-2.34 3.33 -1.68 3.66 -1 4 C-1.66 5.32 -2.32 6.64 -3 8 C-3.66 7.34 -4.32 6.68 -5 6 C-4.34 5.01 -3.68 4.02 -3 3 Z " fill="#73C641" transform="translate(156,212)"/>
<path d="M0 0 C0.66 0 1.32 0 2 0 C1.814375 0.928125 1.62875 1.85625 1.4375 2.8125 C0.75876119 6.01343771 0.75876119 6.01343771 2 9 C1.34 9 0.68 9 0 9 C-1.36623674 6.26752652 -1.128426 4.01801098 -1 1 C-0.67 0.67 -0.34 0.34 0 0 Z " fill="#7AB650" transform="translate(344,286)"/>
<path d="M0 0 C0.33 0 0.66 0 1 0 C1 1.98 1 3.96 1 6 C1.99 6.33 2.98 6.66 4 7 C3.67 8.32 3.34 9.64 3 11 C0.39665076 8.28817788 0.00543309 7.10866187 -0.1875 3.25 C-0.125625 2.1775 -0.06375 1.105 0 0 Z " fill="#B6DE98" transform="translate(154,265)"/>
<path d="M0 0 C0.33 0.66 0.66 1.32 1 2 C-1 5 -1 5 -4.125 5.6875 C-5.07375 5.790625 -6.0225 5.89375 -7 6 C-4.74259377 3.66475218 -2.7194239 1.81294927 0 0 Z " fill="#36A555" transform="translate(297,249)"/>
<path d="M0 0 C0.33 0.99 0.66 1.98 1 3 C-0.65 4.32 -2.3 5.64 -4 7 C-4 5.33333333 -4 3.66666667 -4 2 C-2.68 2 -1.36 2 0 2 C0 1.34 0 0.68 0 0 Z " fill="#2EA650" transform="translate(358,246)"/>
<path d="M0 0 C-0.33 1.32 -0.66 2.64 -1 4 C-2.32 4.33 -3.64 4.66 -5 5 C-4.625 3.0625 -4.625 3.0625 -4 1 C-2 0 -2 0 0 0 Z " fill="#6FC287" transform="translate(293,238)"/>
<path d="M0 0 C-0.33 1.32 -0.66 2.64 -1 4 C-2.65 3.67 -4.3 3.34 -6 3 C-3.375 0 -3.375 0 0 0 Z " fill="#2EAB55" transform="translate(369,233)"/>
<path d="M0 0 C2 1.125 2 1.125 4 3 C4.25 6.1875 4.25 6.1875 4 9 C3.67 9 3.34 9 3 9 C3 7.35 3 5.7 3 4 C0.525 3.01 0.525 3.01 -2 2 C-1.34 1.34 -0.68 0.68 0 0 Z " fill="#7DB853" transform="translate(156,209)"/>
<path d="M0 0 C1.46726798 3.81489674 0.43336419 6.29011622 -1 10 C-1.66 9.67 -2.32 9.34 -3 9 C-2.69181644 7.68647977 -2.37832335 6.37420428 -2.0625 5.0625 C-1.88847656 4.33160156 -1.71445313 3.60070312 -1.53515625 2.84765625 C-1 1 -1 1 0 0 Z " fill="#7EB959" transform="translate(207,183)"/>
<path d="M0 0 C-0.33 0.99 -0.66 1.98 -1 3 C-2.65 2.67 -4.3 2.34 -6 2 C-6 1.34 -6 0.68 -6 0 C-3 -1 -3 -1 0 0 Z " fill="#6EC03E" transform="translate(172,163)"/>
<path d="M0 0 C0.66 0 1.32 0 2 0 C0.95125002 2.62187494 0.35068687 3.79371361 -2.125 5.25 C-2.74375 5.4975 -3.3625 5.745 -4 6 C-3.67 4.68 -3.34 3.36 -3 2 C-2.01 2 -1.02 2 0 2 C0 1.34 0 0.68 0 0 Z " fill="#39A65A" transform="translate(391,106)"/>
</svg>
